<svg width="266.501" height="74.601" viewBox="0 0 266.501 74.601" xmlns="http://www.w3.org/2000/svg"><g id="svgGroup" stroke-linecap="round" fillRule="evenodd" font-size="9pt" stroke="#000" strokeWidth="0.25mm" fill="#000" style="stroke:#000;strokeWidth:0.25mm;fill:#000"><path d="M 150.1 43.7 L 150.1 74.2 L 145.1 74.2 L 145.1 44.1 A 27.908 27.908 0 0 0 144.665 39.01 Q 144.128 36.115 142.924 33.847 A 13.803 13.803 0 0 0 140.65 30.7 Q 136.2 26.1 128.2 26.1 A 25.053 25.053 0 0 0 122.835 26.649 A 19.142 19.142 0 0 0 117.6 28.6 Q 113.1 31.1 110.75 35.6 Q 108.4 40.1 108.4 46.4 L 108.4 74.2 L 103.4 74.2 L 103.4 0 L 108.4 0 L 108.4 36.5 L 107.5 34.9 Q 109.9 28.7 115.4 25.15 Q 120.9 21.6 128.9 21.6 A 28.203 28.203 0 0 1 134.493 22.129 A 21.234 21.234 0 0 1 140.05 24.05 Q 144.8 26.5 147.45 31.45 Q 150.1 36.4 150.1 43.7 Z M 5.1 8.8 L 5.1 69.6 L 48.3 69.6 L 48.3 74.2 L 0 74.2 L 0 4.2 L 46.8 4.2 L 46.8 8.8 L 5.1 8.8 Z M 225 67.9 L 227.3 63.9 Q 229.825 66.089 233.768 67.746 A 37.848 37.848 0 0 0 235.3 68.35 A 30.204 30.204 0 0 0 244.218 70.15 A 35.189 35.189 0 0 0 246.1 70.2 Q 254.3 70.2 257.9 67.5 A 9.232 9.232 0 0 0 260.329 64.866 Q 261.463 62.971 261.499 60.556 A 10.645 10.645 0 0 0 261.5 60.4 Q 261.5 57.2 259.65 55.35 Q 257.852 53.552 254.875 52.557 A 17.579 17.579 0 0 0 254.7 52.5 A 46.821 46.821 0 0 0 250.645 51.399 A 58.008 58.008 0 0 0 247.9 50.85 Q 244.2 50.2 240.5 49.4 Q 236.8 48.6 233.7 47.1 A 12.961 12.961 0 0 1 229.924 44.386 A 12.158 12.158 0 0 1 228.75 42.95 A 9.537 9.537 0 0 1 227.392 39.972 Q 227.038 38.676 226.939 37.139 A 19.2 19.2 0 0 1 226.9 35.9 Q 226.9 31.9 229.1 28.7 A 13.292 13.292 0 0 1 232.379 25.418 Q 233.821 24.389 235.642 23.576 A 22.682 22.682 0 0 1 235.7 23.55 A 20.816 20.816 0 0 1 239.971 22.217 Q 242.045 21.793 244.448 21.66 A 40.907 40.907 0 0 1 246.7 21.6 Q 251.6 21.6 256.55 23 A 32.251 32.251 0 0 1 260.234 24.272 Q 262.747 25.325 264.6 26.7 L 262.3 30.7 Q 259 28.2 254.9 27.1 Q 250.8 26 246.6 26 A 32.794 32.794 0 0 0 242.645 26.221 Q 238.519 26.724 236.044 28.37 A 9.051 9.051 0 0 0 235.45 28.8 A 9.967 9.967 0 0 0 233.218 31.201 A 8.288 8.288 0 0 0 231.9 35.8 A 9.551 9.551 0 0 0 232.139 37.998 A 6.518 6.518 0 0 0 233.75 41.05 Q 235.6 43 238.7 44.05 A 42.608 42.608 0 0 0 242.809 45.206 A 52.438 52.438 0 0 0 245.5 45.75 Q 249.2 46.4 252.9 47.2 A 33.485 33.485 0 0 1 257.704 48.607 A 28.892 28.892 0 0 1 259.7 49.45 A 13.211 13.211 0 0 1 263.087 51.692 A 11.846 11.846 0 0 1 264.65 53.45 A 8.998 8.998 0 0 1 266.008 56.331 Q 266.5 58.083 266.5 60.3 A 13.239 13.239 0 0 1 265.797 64.673 A 11.796 11.796 0 0 1 264.15 67.8 A 13.247 13.247 0 0 1 260.681 71.032 Q 259.189 72.009 257.321 72.752 A 22.839 22.839 0 0 1 257.2 72.8 Q 253.409 74.284 248.191 74.544 A 45.907 45.907 0 0 1 245.9 74.6 A 39.312 39.312 0 0 1 236.995 73.618 A 34.932 34.932 0 0 1 233.75 72.7 A 33.334 33.334 0 0 1 230.018 71.205 Q 228.147 70.312 226.674 69.262 A 16.246 16.246 0 0 1 225 67.9 Z M 64.6 60.4 L 64.6 10.6 L 69.6 10.6 L 69.6 59.9 Q 69.6 64.9 72.1 67.6 A 8.073 8.073 0 0 0 76.081 69.919 Q 77.353 70.252 78.864 70.294 A 15.835 15.835 0 0 0 79.3 70.3 A 13.6 13.6 0 0 0 83.132 69.784 A 10.779 10.779 0 0 0 87.4 67.4 L 89.5 70.9 A 12.086 12.086 0 0 1 85.371 73.451 A 14.306 14.306 0 0 1 84.65 73.7 Q 81.8 74.6 78.8 74.6 A 20.005 20.005 0 0 1 74.627 74.192 Q 72.053 73.643 70.111 72.354 A 11.034 11.034 0 0 1 68.25 70.8 A 12.617 12.617 0 0 1 65.113 64.956 Q 64.632 63.005 64.602 60.708 A 23.514 23.514 0 0 1 64.6 60.4 Z M 183.197 73.528 A 28.212 28.212 0 0 0 191.1 74.6 A 31.386 31.386 0 0 0 193.631 74.5 A 25.612 25.612 0 0 0 204.5 71.2 Q 210.4 67.8 213.8 61.8 A 25.253 25.253 0 0 0 216.183 56.013 A 29.771 29.771 0 0 0 217.2 48.1 A 32.548 32.548 0 0 0 216.931 43.859 A 25.711 25.711 0 0 0 213.8 34.35 Q 210.4 28.4 204.5 25 A 24.636 24.636 0 0 0 199.237 22.736 A 28.276 28.276 0 0 0 191.1 21.6 A 31.146 31.146 0 0 0 188.289 21.725 A 25.228 25.228 0 0 0 177.75 25 Q 171.9 28.4 168.45 34.35 A 24.652 24.652 0 0 0 165.917 40.548 A 29.938 29.938 0 0 0 165 48.1 Q 165 55.8 168.45 61.8 Q 171.9 67.8 177.75 71.2 A 24.268 24.268 0 0 0 183.197 73.528 Z M 191.1 70.1 A 22.469 22.469 0 0 0 198.121 69.029 A 20.213 20.213 0 0 0 201.9 67.35 Q 206.7 64.6 209.4 59.6 A 22.423 22.423 0 0 0 211.874 51.732 A 28.454 28.454 0 0 0 212.1 48.1 A 27.266 27.266 0 0 0 211.467 42.093 A 21.289 21.289 0 0 0 209.4 36.55 Q 206.7 31.6 201.9 28.85 A 20.947 20.947 0 0 0 192.581 26.143 A 25.249 25.249 0 0 0 191.1 26.1 Q 185.1 26.1 180.35 28.85 Q 175.6 31.6 172.85 36.55 A 21.66 21.66 0 0 0 170.396 43.946 A 28.181 28.181 0 0 0 170.1 48.1 A 26.161 26.161 0 0 0 170.831 54.404 A 21.404 21.404 0 0 0 172.85 59.6 Q 175.6 64.6 180.35 67.35 Q 185.1 70.1 191.1 70.1 Z M 4.5 40.9 L 4.5 36.4 L 42.4 36.4 L 42.4 40.9 L 4.5 40.9 Z M 86.2 26.3 L 55 26.3 L 55 22 L 86.2 22 L 86.2 26.3 Z" vector-effect="non-scaling-stroke"/></g></svg>