<svg width="18" height="25" viewBox="0 0 18 25" fill="none" xmlns="http://www.w3.org/2000/svg">
    <g clip-path="url(#clip0_304_838)">
        <path
            d="M2.29966 0.384613H15.3202C16.3778 0.384613 17.2351 1.24561 17.2351 2.30769V17.2471C17.2351 18.3092 16.3778 19.1702 15.3202 19.1702H2.29966C1.24209 19.1702 0.384766 18.3092 0.384766 17.2471V2.30769C0.384766 1.24561 1.2421 0.384613 2.29966 0.384613Z"
            stroke="url(#paint0_linear_304_838)" stroke-width="1.53191" />
        <path
            d="M2.56125 1.40249L11.7433 5.69331C12.2835 5.94573 12.629 6.48981 12.629 7.08815V22.5692C12.629 23.6824 11.4881 24.4271 10.4751 23.9751L1.29297 19.8781C0.73966 19.6312 0.383057 19.0802 0.383057 18.4722V2.79734C0.383057 1.67251 1.54576 0.927952 2.56125 1.40249Z"
            fill="#1E293B" />
    </g>
    <defs>
        <linearGradient id="paint0_linear_304_838" x1="17.2351" y1="5.38461" x2="8.79527" y2="9.58659"
            gradientUnits="userSpaceOnUse">
            <stop stop-color="#1E293B" />
            <stop offset="1" stop-color="#1E293B" stop-opacity="0" />
        </linearGradient>
        <clipPath id="clip0_304_838">
            <rect width="18" height="25" fill="white" />
        </clipPath>
    </defs>
</svg>