<svg id="svg" version="1.1" xmlns="http://www.w3.org/2000/svg" xmlns:xlink="http://www.w3.org/1999/xlink" width="400" height="127.22891566265059" viewBox="0, 0, 400,127.22891566265059"><g id="svgg"><path id="path0" d="M12.000 10.978 C 10.297 11.808,9.320 12.912,9.011 14.356 C 8.720 15.710,8.766 110.999,9.057 112.123 C 9.499 113.827,10.847 115.090,12.743 115.578 C 14.289 115.975,76.609 115.964,78.359 115.566 C 83.112 114.485,83.798 108.430,79.407 106.314 L 78.583 105.917 48.917 105.833 L 19.250 105.750 19.208 86.879 L 19.165 68.008 41.041 67.962 L 62.917 67.917 63.712 67.525 C 67.964 65.431,67.260 59.038,62.682 58.170 C 62.105 58.060,54.237 58.000,40.477 58.000 L 19.167 58.000 19.167 39.250 L 19.167 20.500 48.768 20.500 L 78.369 20.500 79.426 19.995 C 83.395 18.102,83.281 12.571,79.241 11.025 L 78.304 10.667 45.444 10.680 C 14.823 10.693,12.544 10.713,12.000 10.978 M158.015 11.043 C 156.897 11.484,156.177 12.188,155.560 13.446 L 155.083 14.417 155.083 63.167 L 155.083 111.917 155.633 113.040 C 157.559 116.979,163.613 116.536,165.035 112.352 C 165.191 111.894,165.264 106.478,165.340 89.750 C 165.451 65.483,165.366 67.464,166.431 64.417 C 169.095 56.789,178.584 51.001,188.417 51.008 C 190.399 51.009,194.863 51.499,195.904 51.828 C 196.186 51.918,196.979 52.155,197.667 52.355 C 205.102 54.517,210.776 60.757,212.350 68.500 C 212.453 69.004,212.614 69.754,212.708 70.167 C 212.818 70.646,212.917 78.277,212.983 91.333 C 213.076 109.888,213.111 111.814,213.365 112.447 C 215.028 116.598,220.822 116.862,222.779 112.876 L 223.250 111.917 223.296 93.750 C 223.352 71.593,223.275 70.015,221.835 64.167 C 219.307 53.889,210.086 44.898,199.694 42.574 C 190.796 40.584,182.796 41.158,176.027 44.271 C 175.354 44.580,174.775 44.833,174.740 44.833 C 173.915 44.833,168.408 48.891,166.292 51.059 L 165.333 52.040 165.331 33.812 C 165.328 14.143,165.333 14.268,164.457 12.845 C 163.232 10.857,160.459 10.081,158.015 11.043 M109.000 18.842 C 107.436 19.055,106.087 20.032,105.386 21.460 L 104.917 22.417 104.871 33.614 L 104.824 44.811 99.871 44.872 C 94.185 44.942,93.789 45.018,92.588 46.272 C 90.918 48.015,90.957 50.638,92.678 52.333 C 93.966 53.602,94.330 53.668,99.951 53.667 L 104.819 53.667 104.885 73.458 C 104.954 94.105,104.956 94.154,105.660 96.833 C 107.260 102.919,110.573 107.976,115.000 111.087 C 116.757 112.322,117.259 112.632,118.600 113.312 C 123.666 115.883,132.737 116.676,135.696 114.807 C 138.962 112.744,138.654 107.603,135.167 105.967 C 134.500 105.655,133.979 105.601,130.500 105.490 C 124.947 105.313,122.809 104.574,119.816 101.796 C 118.499 100.574,116.333 97.378,116.333 96.657 C 116.333 96.553,116.226 96.231,116.095 95.942 C 115.077 93.703,114.985 91.568,115.038 71.250 L 115.083 53.750 123.417 53.667 C 132.847 53.572,132.377 53.639,133.820 52.196 C 135.501 50.515,135.254 47.198,133.346 45.843 C 132.032 44.910,132.231 44.930,123.333 44.836 L 115.083 44.750 115.000 33.583 L 114.917 22.417 114.531 21.635 C 113.489 19.519,111.481 18.505,109.000 18.842 M277.417 41.684 C 275.112 41.791,273.069 42.043,271.382 42.430 C 270.814 42.560,270.152 42.667,269.913 42.667 C 269.674 42.667,269.316 42.753,269.118 42.859 C 268.920 42.965,268.531 43.109,268.254 43.179 C 266.900 43.518,263.328 45.021,261.083 46.195 C 257.272 48.188,251.627 53.121,249.713 56.130 C 249.554 56.379,249.384 56.621,249.335 56.667 C 247.619 58.276,244.227 66.023,243.497 70.000 C 243.388 70.596,243.191 71.646,243.060 72.333 C 242.456 75.500,242.456 82.806,243.059 85.750 C 243.190 86.392,243.411 87.531,243.550 88.283 C 245.647 99.614,255.493 110.626,266.833 114.322 C 270.003 115.355,270.706 115.508,275.250 116.156 C 275.892 116.248,277.992 116.322,279.917 116.322 C 281.842 116.322,283.942 116.248,284.583 116.156 C 288.938 115.535,290.610 115.153,293.833 114.042 C 296.256 113.208,302.231 109.775,303.917 108.249 C 304.192 108.000,304.751 107.524,305.160 107.190 C 307.062 105.637,310.745 101.165,312.108 98.755 C 312.952 97.261,314.603 93.725,314.940 92.689 C 315.167 91.989,315.418 91.267,315.497 91.083 C 315.872 90.216,316.502 87.355,316.909 84.667 C 318.468 74.392,314.889 61.284,308.673 54.500 C 308.212 53.996,307.519 53.208,307.134 52.750 C 304.176 49.226,296.253 44.351,291.579 43.179 C 291.302 43.109,290.913 42.965,290.715 42.859 C 290.517 42.753,290.149 42.667,289.897 42.667 C 289.644 42.667,288.983 42.560,288.427 42.429 C 285.717 41.793,281.387 41.500,277.417 41.684 M359.750 41.656 C 357.574 41.814,354.062 42.418,352.750 42.861 C 352.475 42.953,352.025 43.093,351.750 43.172 C 349.964 43.680,346.925 45.023,345.722 45.835 C 345.316 46.109,344.939 46.333,344.885 46.333 C 344.253 46.333,340.523 50.063,339.383 51.833 C 338.236 53.616,337.668 55.028,336.916 57.958 C 336.258 60.527,336.590 64.996,337.649 67.812 C 339.241 72.044,343.843 76.364,349.083 78.546 C 349.450 78.699,350.200 79.013,350.750 79.244 C 351.300 79.476,351.841 79.665,351.953 79.666 C 352.064 79.666,352.402 79.774,352.703 79.906 C 353.215 80.130,355.698 80.820,358.167 81.425 C 359.173 81.672,360.499 81.917,363.157 82.348 C 363.747 82.444,364.361 82.592,364.521 82.678 C 364.681 82.763,365.055 82.833,365.353 82.833 C 365.910 82.833,366.368 82.941,370.083 83.949 C 372.213 84.527,373.484 84.967,374.359 85.432 C 374.602 85.561,374.873 85.667,374.960 85.667 C 375.317 85.667,378.150 87.430,379.061 88.219 C 383.626 92.174,383.611 98.453,379.026 102.742 C 378.290 103.430,377.090 104.333,376.912 104.333 C 376.871 104.333,376.481 104.550,376.044 104.814 C 372.026 107.248,360.959 107.886,354.500 106.057 C 352.300 105.433,349.377 104.287,348.500 103.702 C 348.271 103.550,347.821 103.284,347.500 103.111 C 346.635 102.646,345.282 101.576,344.380 100.644 C 341.043 97.193,337.997 96.690,335.404 99.161 C 333.130 101.328,333.331 104.017,335.962 106.601 C 340.104 110.669,345.417 113.412,352.333 115.052 C 354.684 115.609,355.125 115.697,356.250 115.830 C 356.892 115.906,357.898 116.055,358.486 116.163 C 361.126 116.645,368.882 116.338,371.833 115.635 C 372.246 115.537,372.883 115.401,373.250 115.332 C 379.270 114.215,386.331 109.879,389.120 105.587 C 391.420 102.047,392.203 99.497,392.215 95.500 C 392.243 86.289,387.081 80.168,376.083 76.373 C 373.525 75.491,370.391 74.719,367.167 74.179 C 362.251 73.355,357.172 72.172,355.945 71.566 C 355.685 71.438,355.368 71.333,355.240 71.333 C 354.695 71.333,350.801 69.308,350.185 68.704 C 350.058 68.579,349.772 68.358,349.550 68.213 C 347.017 66.553,345.768 61.455,347.108 58.250 C 349.358 52.873,356.583 50.015,365.954 50.797 C 371.617 51.269,375.916 53.189,379.902 57.024 C 381.766 58.818,382.847 59.664,383.290 59.673 C 383.451 59.676,383.771 59.786,384.000 59.917 C 385.772 60.930,389.207 59.455,390.134 57.284 C 391.119 54.977,388.457 50.994,383.609 47.520 C 381.706 46.157,379.196 44.777,377.250 44.024 C 376.700 43.812,376.100 43.568,375.917 43.484 C 375.134 43.122,372.037 42.353,370.608 42.166 C 369.981 42.084,369.081 41.941,368.608 41.848 C 367.472 41.625,361.852 41.503,359.750 41.656 M285.276 51.250 C 290.645 52.296,294.493 54.262,298.962 58.246 C 302.203 61.134,305.770 67.667,306.496 72.042 C 306.576 72.523,306.719 73.260,306.815 73.679 C 307.084 74.860,307.212 80.035,307.026 82.167 C 306.478 88.438,304.567 93.074,300.439 98.145 C 299.948 98.749,298.757 99.934,297.685 100.887 C 296.907 101.579,296.334 101.981,294.000 103.474 C 285.365 109.000,270.194 107.963,262.667 101.334 C 262.438 101.132,261.847 100.618,261.354 100.192 C 257.400 96.769,254.119 90.886,253.067 85.333 C 252.182 80.664,252.361 74.619,253.500 70.750 C 257.650 56.646,270.979 48.466,285.276 51.250 " stroke="none" fill="#242424" fillRule="evenodd"></path><path id="path1" d="M0.000 63.583 L 0.000 127.167 200.000 127.167 L 400.000 127.167 400.000 63.583 L 400.000 0.000 200.000 0.000 L 0.000 0.000 0.000 63.583 M78.909 10.654 C 78.961 10.738,79.231 10.858,79.508 10.918 C 80.316 11.096,81.866 12.652,82.208 13.629 C 83.318 16.796,81.521 19.942,78.200 20.646 C 77.566 20.781,69.138 20.833,48.325 20.833 L 19.333 20.833 19.333 39.330 L 19.333 57.827 41.208 57.872 L 63.083 57.917 63.833 58.281 C 66.077 59.372,67.213 61.806,66.598 64.208 C 66.325 65.276,65.566 66.613,65.123 66.807 C 65.052 66.838,64.897 66.960,64.778 67.079 C 64.660 67.198,64.230 67.472,63.823 67.689 L 63.083 68.083 41.208 68.128 L 19.333 68.173 19.333 86.920 L 19.333 105.667 48.786 105.667 C 75.846 105.667,78.300 105.689,78.994 105.944 C 84.093 107.816,83.532 114.938,78.216 115.822 C 77.394 115.959,68.236 115.998,44.833 115.964 L 12.583 115.917 11.833 115.565 C 10.833 115.095,9.576 113.956,9.120 113.106 L 8.750 112.417 8.707 63.500 C 8.658 8.070,8.506 13.732,10.088 12.086 C 11.755 10.351,7.703 10.530,45.615 10.514 C 65.739 10.506,78.851 10.561,78.909 10.654 M161.961 10.642 C 162.120 10.720,162.537 10.922,162.887 11.091 C 163.483 11.379,164.484 12.442,164.959 13.290 C 165.436 14.144,165.493 16.321,165.497 33.726 L 165.500 51.536 166.925 50.187 C 174.687 42.840,184.550 39.972,196.246 41.662 C 198.496 41.987,202.827 43.168,203.987 43.774 C 204.224 43.897,204.470 43.998,204.535 43.999 C 205.828 44.010,211.919 48.071,214.109 50.382 C 219.667 56.244,222.128 61.735,223.165 70.583 C 223.686 75.028,223.682 110.903,223.161 112.426 C 221.649 116.840,215.328 117.110,213.283 112.847 L 212.917 112.083 212.804 91.833 C 212.742 80.696,212.621 71.096,212.537 70.500 C 211.738 64.879,208.728 59.244,205.083 56.547 C 204.808 56.343,204.294 55.951,203.939 55.675 C 197.985 51.035,186.396 49.936,178.250 53.239 C 172.901 55.409,168.571 59.532,166.776 64.167 C 166.381 65.187,166.182 65.838,165.784 67.417 C 165.677 67.838,165.579 76.172,165.516 90.083 L 165.417 112.083 164.974 113.012 C 162.984 117.189,156.342 116.773,155.114 112.393 C 154.692 110.892,154.680 15.577,155.101 14.160 C 155.562 12.606,156.840 11.090,157.860 10.886 C 158.124 10.833,158.381 10.725,158.430 10.645 C 158.546 10.458,161.580 10.455,161.961 10.642 M111.967 18.919 C 113.043 19.274,114.064 20.241,114.708 21.516 L 115.167 22.421 115.167 33.537 L 115.167 44.652 123.375 44.708 C 132.761 44.773,132.419 44.726,133.844 46.151 C 135.708 48.015,135.607 51.107,133.629 52.718 C 132.111 53.955,132.514 53.906,123.367 53.965 L 115.151 54.017 115.212 72.800 C 115.279 93.070,115.269 92.835,116.193 95.583 C 118.510 102.475,123.468 105.495,132.474 105.502 C 135.429 105.504,136.568 106.070,137.498 108.000 C 137.697 108.412,137.929 108.880,138.013 109.039 C 138.941 110.790,137.411 114.293,135.270 115.321 C 132.623 116.592,125.293 116.090,120.250 114.291 C 114.408 112.208,108.092 105.526,106.244 99.472 C 106.095 98.983,105.904 98.411,105.819 98.199 C 104.802 95.660,104.672 92.695,104.669 72.056 L 104.667 54.030 99.692 53.973 C 96.374 53.935,94.640 53.855,94.484 53.731 C 94.355 53.629,94.053 53.499,93.812 53.442 C 91.119 52.800,90.384 48.001,92.665 45.949 C 93.924 44.818,94.128 44.782,99.701 44.709 L 104.651 44.644 104.701 33.447 L 104.750 22.250 105.123 21.493 C 105.677 20.369,107.074 19.000,107.667 19.000 C 107.814 19.000,108.005 18.931,108.092 18.847 C 108.522 18.433,110.613 18.472,111.967 18.919 M282.917 41.505 C 286.720 41.810,290.674 42.512,292.250 43.161 C 292.433 43.236,292.958 43.428,293.417 43.588 C 298.164 45.239,304.766 49.548,307.333 52.672 C 307.654 53.063,308.033 53.503,308.176 53.649 C 309.917 55.442,312.303 59.023,313.594 61.779 C 314.102 62.863,314.588 63.900,314.674 64.083 C 315.052 64.887,316.183 68.637,316.423 69.884 C 316.568 70.635,316.790 71.737,316.916 72.333 C 317.594 75.539,317.553 82.950,316.839 86.335 C 316.655 87.205,316.504 88.093,316.503 88.308 C 316.499 88.866,314.925 93.545,314.307 94.833 C 312.851 97.872,312.284 98.906,311.130 100.626 C 310.438 101.658,309.544 102.867,309.144 103.312 C 308.744 103.758,308.004 104.594,307.500 105.171 C 304.516 108.585,297.919 112.925,293.577 114.332 C 292.939 114.538,291.892 114.881,291.250 115.092 C 288.261 116.077,280.946 116.858,277.868 116.521 C 276.925 116.418,275.773 116.333,275.308 116.333 C 274.843 116.333,273.403 116.140,272.107 115.903 C 269.938 115.507,269.310 115.353,267.417 114.753 C 267.050 114.637,266.450 114.450,266.083 114.336 C 260.043 112.471,252.401 106.412,248.421 100.333 C 246.316 97.117,243.332 90.149,243.334 88.452 C 243.334 88.249,243.227 87.596,243.095 87.000 C 242.495 84.281,242.417 83.357,242.417 79.000 C 242.417 74.637,242.502 73.638,243.096 71.049 C 243.227 70.480,243.333 69.837,243.333 69.620 C 243.333 67.087,247.733 57.921,250.367 54.967 C 250.669 54.628,251.404 53.781,252.000 53.085 C 253.394 51.455,255.772 49.378,257.772 48.042 C 260.649 46.120,260.891 45.986,264.000 44.583 C 266.294 43.547,266.174 43.595,268.002 43.006 C 270.052 42.346,272.829 41.859,275.745 41.650 C 277.025 41.558,278.106 41.449,278.147 41.408 C 278.279 41.277,280.681 41.325,282.917 41.505 M369.333 41.762 C 377.435 42.807,385.997 47.560,389.422 52.913 C 390.413 54.464,390.923 56.886,390.333 57.250 C 390.242 57.307,390.167 57.467,390.167 57.607 C 390.167 58.741,387.581 60.341,385.708 60.365 C 384.090 60.386,381.167 59.167,381.167 58.472 C 381.167 58.396,381.054 58.333,380.917 58.333 C 380.779 58.333,380.667 58.270,380.667 58.193 C 380.667 57.582,375.327 53.333,374.560 53.333 C 374.446 53.333,374.094 53.181,373.779 52.995 C 369.939 50.729,360.338 50.220,355.025 52.001 C 349.618 53.812,346.929 56.936,346.921 61.417 C 346.911 67.000,350.575 70.242,359.250 72.323 C 360.075 72.521,361.050 72.767,361.417 72.870 C 361.783 72.973,362.458 73.113,362.917 73.181 C 363.375 73.250,364.575 73.461,365.583 73.652 C 366.592 73.843,367.867 74.078,368.417 74.176 C 369.993 74.456,374.220 75.486,374.539 75.668 C 374.699 75.759,374.950 75.833,375.098 75.833 C 375.245 75.833,375.603 75.939,375.891 76.069 C 376.180 76.198,376.887 76.461,377.463 76.653 C 378.038 76.845,378.638 77.073,378.796 77.159 C 378.954 77.246,379.571 77.524,380.167 77.777 C 385.386 79.997,389.558 84.076,391.332 88.695 C 393.190 93.529,392.577 101.133,390.064 104.427 C 389.845 104.714,389.667 105.003,389.667 105.069 C 389.667 105.821,384.189 111.333,383.441 111.333 C 383.388 111.333,382.822 111.671,382.184 112.083 C 381.547 112.496,380.972 112.833,380.908 112.833 C 380.844 112.833,380.257 113.085,379.604 113.392 C 375.526 115.311,371.924 116.141,366.115 116.498 C 360.516 116.843,352.688 115.850,348.917 114.318 C 348.733 114.243,348.321 114.110,348.000 114.022 C 341.326 112.189,333.645 106.083,333.676 102.634 C 333.712 98.550,338.591 95.990,341.952 98.291 C 342.321 98.544,343.346 99.425,344.231 100.250 C 346.450 102.319,348.036 103.334,351.417 104.849 C 357.493 107.572,371.181 107.479,375.848 104.683 C 376.161 104.495,376.700 104.187,377.046 103.999 C 382.480 101.035,383.932 93.034,379.754 89.083 C 378.454 87.855,377.060 86.916,375.167 85.994 C 374.002 85.427,372.021 84.685,370.750 84.341 C 367.818 83.545,366.883 83.317,365.667 83.099 C 364.887 82.959,363.574 82.702,362.747 82.527 C 361.921 82.352,360.833 82.156,360.331 82.091 C 359.828 82.026,359.192 81.907,358.917 81.826 C 358.642 81.745,357.742 81.521,356.917 81.327 C 355.124 80.906,353.211 80.374,352.750 80.169 C 352.567 80.088,352.229 79.973,352.000 79.914 C 348.334 78.970,343.090 75.692,340.484 72.716 C 337.529 69.341,336.439 66.383,336.457 61.783 C 336.474 57.496,337.325 54.469,339.348 51.494 C 340.386 49.967,343.605 46.795,344.827 46.095 C 346.831 44.946,347.640 44.500,347.721 44.500 C 347.775 44.500,348.290 44.280,348.868 44.012 C 353.825 41.705,361.960 40.810,369.333 41.762 M276.667 51.155 C 274.743 51.331,271.447 52.075,270.083 52.641 C 261.177 56.335,254.494 64.300,253.315 72.627 C 253.231 73.220,253.113 73.785,253.052 73.883 C 252.642 74.547,252.724 82.581,253.163 84.750 C 254.132 89.534,256.229 94.177,258.765 97.153 C 264.184 103.512,270.567 106.564,278.917 106.790 C 285.143 106.958,290.412 105.624,294.633 102.811 C 295.028 102.548,295.392 102.333,295.443 102.333 C 295.594 102.333,296.827 101.345,298.188 100.133 C 301.182 97.467,304.084 93.097,305.247 89.500 C 305.410 88.996,305.642 88.321,305.762 88.000 C 305.988 87.395,306.329 85.824,306.701 83.667 C 307.301 80.188,306.789 72.743,305.762 70.000 C 305.641 69.679,305.409 69.004,305.245 68.500 C 305.081 67.996,304.696 67.043,304.390 66.383 C 304.084 65.722,303.833 65.137,303.833 65.082 C 303.833 65.027,303.487 64.443,303.063 63.783 C 302.639 63.123,302.175 62.396,302.032 62.167 C 297.386 54.714,287.000 50.206,276.667 51.155 " stroke="none" fill="#fbfbfb" fillRule="evenodd"></path><path id="path2" d="M19.247 39.250 C 19.247 49.425,19.267 53.563,19.292 48.446 C 19.316 43.328,19.316 35.003,19.292 29.946 C 19.267 24.888,19.247 29.075,19.247 39.250 M359.792 41.618 C 359.998 41.657,360.335 41.657,360.542 41.618 C 360.748 41.578,360.579 41.545,360.167 41.545 C 359.754 41.545,359.585 41.578,359.792 41.618 M365.625 41.621 C 365.923 41.658,366.410 41.658,366.708 41.621 C 367.006 41.584,366.762 41.553,366.167 41.553 C 365.571 41.553,365.327 41.584,365.625 41.621 M336.545 60.667 C 336.545 61.079,336.578 61.248,336.618 61.042 C 336.657 60.835,336.657 60.498,336.618 60.292 C 336.578 60.085,336.545 60.254,336.545 60.667 M19.247 86.917 C 19.247 97.275,19.267 101.488,19.292 96.279 C 19.316 91.070,19.316 82.595,19.292 77.446 C 19.267 72.296,19.247 76.558,19.247 86.917 M252.553 79.000 C 252.553 79.596,252.584 79.840,252.621 79.542 C 252.658 79.244,252.658 78.756,252.621 78.458 C 252.584 78.160,252.553 78.404,252.553 79.000 M307.050 79.000 C 307.050 79.504,307.081 79.710,307.119 79.458 C 307.158 79.206,307.158 78.794,307.119 78.542 C 307.081 78.290,307.050 78.496,307.050 79.000 M392.375 95.250 C 392.377 95.617,392.411 95.747,392.451 95.540 C 392.491 95.332,392.490 95.032,392.448 94.873 C 392.406 94.714,392.374 94.883,392.375 95.250 " stroke="none" fill="#8c8c8c" fillRule="evenodd"></path><path id="path3" d="M29.638 10.625 C 38.468 10.649,52.868 10.649,61.638 10.625 C 70.408 10.601,63.183 10.582,45.583 10.582 C 27.983 10.582,20.808 10.601,29.638 10.625 M81.435 12.658 C 81.537 12.800,81.703 13.067,81.805 13.250 C 81.907 13.433,81.992 13.494,81.995 13.384 C 81.998 13.275,81.831 13.009,81.625 12.793 C 81.419 12.577,81.333 12.517,81.435 12.658 M8.749 63.167 C 8.749 89.612,8.768 100.431,8.792 87.208 C 8.815 73.985,8.815 52.348,8.792 39.125 C 8.768 25.902,8.749 36.721,8.749 63.167 M19.167 20.625 C 19.167 20.738,39.359 20.737,67.250 20.624 C 73.025 20.600,64.569 20.563,48.458 20.540 C 32.348 20.518,19.167 20.556,19.167 20.625 M115.079 34.000 C 115.079 39.913,115.099 42.331,115.125 39.375 C 115.150 36.419,115.150 31.581,115.125 28.625 C 115.099 25.669,115.079 28.087,115.079 34.000 M187.795 41.454 C 188.094 41.491,188.544 41.490,188.795 41.452 C 189.045 41.414,188.800 41.384,188.250 41.385 C 187.700 41.386,187.495 41.417,187.795 41.454 M191.121 41.454 C 191.417 41.490,191.942 41.491,192.288 41.455 C 192.634 41.419,192.392 41.389,191.750 41.388 C 191.108 41.387,190.825 41.417,191.121 41.454 M278.627 41.618 C 278.834 41.658,279.134 41.656,279.294 41.615 C 279.453 41.573,279.283 41.540,278.917 41.542 C 278.550 41.544,278.420 41.578,278.627 41.618 M280.458 41.618 C 280.665 41.657,281.002 41.657,281.208 41.618 C 281.415 41.578,281.246 41.545,280.833 41.545 C 280.421 41.545,280.252 41.578,280.458 41.618 M274.960 41.785 C 275.168 41.824,275.468 41.823,275.627 41.781 C 275.786 41.739,275.617 41.707,275.250 41.709 C 274.883 41.711,274.753 41.745,274.960 41.785 M284.294 41.785 C 284.501 41.824,284.801 41.823,284.960 41.781 C 285.120 41.739,284.950 41.707,284.583 41.709 C 284.217 41.711,284.086 41.745,284.294 41.785 M342.406 48.208 L 341.917 48.750 342.458 48.260 C 342.963 47.804,343.077 47.667,342.948 47.667 C 342.919 47.667,342.675 47.910,342.406 48.208 M212.333 48.885 C 212.333 48.914,212.577 49.158,212.875 49.427 L 213.417 49.917 212.927 49.375 C 212.471 48.870,212.333 48.757,212.333 48.885 M167.573 49.708 L 167.083 50.250 167.625 49.760 C 167.923 49.491,168.167 49.248,168.167 49.219 C 168.167 49.090,168.029 49.203,167.573 49.708 M386.917 50.333 C 387.553 50.975,388.112 51.500,388.158 51.500 C 388.204 51.500,387.720 50.975,387.083 50.333 C 386.447 49.692,385.888 49.167,385.842 49.167 C 385.796 49.167,386.280 49.692,386.917 50.333 M304.167 49.885 C 304.167 49.914,304.410 50.158,304.708 50.427 L 305.250 50.917 304.760 50.375 C 304.304 49.870,304.167 49.757,304.167 49.885 M134.853 50.195 C 134.842 50.348,134.790 50.610,134.737 50.778 C 134.647 51.067,134.651 51.068,134.832 50.786 C 134.937 50.623,134.989 50.361,134.947 50.203 C 134.879 49.945,134.870 49.944,134.853 50.195 M214.250 50.833 C 214.701 51.292,215.108 51.667,215.154 51.667 C 215.200 51.667,214.868 51.292,214.417 50.833 C 213.965 50.375,213.558 50.000,213.513 50.000 C 213.467 50.000,213.799 50.375,214.250 50.833 M362.711 50.620 C 362.964 50.658,363.339 50.657,363.544 50.617 C 363.749 50.578,363.542 50.546,363.083 50.548 C 362.625 50.549,362.457 50.581,362.711 50.620 M276.711 50.953 C 276.964 50.991,277.339 50.990,277.544 50.951 C 277.749 50.911,277.542 50.880,277.083 50.881 C 276.625 50.882,276.457 50.915,276.711 50.953 M282.208 50.953 C 282.460 50.991,282.873 50.991,283.125 50.953 C 283.377 50.915,283.171 50.883,282.667 50.883 C 282.162 50.883,281.956 50.915,282.208 50.953 M187.542 51.123 C 188.069 51.156,188.931 51.156,189.458 51.123 C 189.985 51.090,189.554 51.063,188.500 51.063 C 187.446 51.063,187.015 51.090,187.542 51.123 M191.211 51.286 C 191.464 51.325,191.839 51.324,192.044 51.284 C 192.249 51.244,192.042 51.213,191.583 51.214 C 191.125 51.216,190.957 51.248,191.211 51.286 M253.240 51.875 L 252.750 52.417 253.292 51.927 C 253.797 51.471,253.910 51.333,253.781 51.333 C 253.752 51.333,253.509 51.577,253.240 51.875 M97.792 53.791 C 99.098 53.819,101.235 53.819,102.542 53.791 C 103.848 53.763,102.779 53.740,100.167 53.740 C 97.554 53.740,96.485 53.763,97.792 53.791 M115.077 53.875 C 115.033 53.990,115.017 62.183,115.041 72.083 L 115.085 90.083 115.126 71.960 L 115.167 53.837 123.042 53.792 L 130.917 53.747 123.036 53.707 C 116.856 53.675,115.139 53.712,115.077 53.875 M250.658 54.792 L 250.083 55.417 250.708 54.842 C 251.052 54.526,251.333 54.245,251.333 54.217 C 251.333 54.090,251.192 54.210,250.658 54.792 M262.406 56.875 L 261.917 57.417 262.458 56.927 C 262.963 56.471,263.077 56.333,262.948 56.333 C 262.919 56.333,262.675 56.577,262.406 56.875 M19.167 57.875 C 19.167 57.944,28.785 57.982,40.542 57.960 C 52.298 57.938,58.467 57.901,54.250 57.877 C 34.001 57.763,19.167 57.762,19.167 57.875 M260.494 58.625 L 259.583 59.583 260.542 58.672 C 261.432 57.826,261.576 57.667,261.453 57.667 C 261.427 57.667,260.995 58.098,260.494 58.625 M207.500 58.750 C 207.811 59.071,208.103 59.333,208.149 59.333 C 208.195 59.333,207.978 59.071,207.667 58.750 C 207.356 58.429,207.064 58.167,207.018 58.167 C 206.972 58.167,207.189 58.429,207.500 58.750 M299.000 58.385 C 299.000 58.414,299.244 58.658,299.542 58.927 L 300.083 59.417 299.594 58.875 C 299.138 58.370,299.000 58.257,299.000 58.385 M300.000 59.552 C 300.000 59.581,300.244 59.825,300.542 60.094 L 301.083 60.583 300.594 60.042 C 300.138 59.537,300.000 59.423,300.000 59.552 M346.556 61.667 C 346.556 62.354,346.585 62.635,346.621 62.292 C 346.657 61.948,346.657 61.385,346.621 61.042 C 346.585 60.698,346.556 60.979,346.556 61.667 M66.542 62.917 C 66.544 63.283,66.578 63.414,66.618 63.206 C 66.658 62.999,66.656 62.699,66.615 62.540 C 66.573 62.380,66.540 62.550,66.542 62.917 M29.805 68.125 C 35.701 68.149,45.301 68.149,51.138 68.125 C 56.975 68.101,52.150 68.081,40.417 68.081 C 28.683 68.081,23.908 68.101,29.805 68.125 M354.500 71.083 C 354.729 71.214,354.992 71.322,355.083 71.322 C 355.175 71.322,355.063 71.214,354.833 71.083 C 354.604 70.952,354.342 70.845,354.250 70.845 C 354.158 70.845,354.271 70.952,354.500 71.083 M340.000 72.052 C 340.000 72.081,340.244 72.325,340.542 72.594 L 341.083 73.083 340.594 72.542 C 340.138 72.037,340.000 71.923,340.000 72.052 M212.881 73.250 C 212.882 73.708,212.915 73.876,212.953 73.623 C 212.991 73.369,212.990 72.994,212.951 72.789 C 212.911 72.584,212.880 72.792,212.881 73.250 M223.212 73.500 C 223.212 73.912,223.245 74.081,223.284 73.875 C 223.324 73.669,223.324 73.331,223.284 73.125 C 223.245 72.919,223.212 73.087,223.212 73.500 M342.369 74.419 C 342.710 74.775,343.016 75.033,343.049 74.992 C 343.082 74.950,342.803 74.659,342.429 74.344 L 341.750 73.771 342.369 74.419 M317.053 75.000 C 317.053 75.596,317.084 75.840,317.121 75.542 C 317.158 75.244,317.158 74.756,317.121 74.458 C 317.084 74.160,317.053 74.404,317.053 75.000 M242.548 76.750 C 242.549 77.208,242.581 77.376,242.620 77.123 C 242.658 76.869,242.657 76.494,242.617 76.289 C 242.578 76.084,242.546 76.292,242.548 76.750 M252.553 77.000 C 252.553 77.596,252.584 77.840,252.621 77.542 C 252.658 77.244,252.658 76.756,252.621 76.458 C 252.584 76.160,252.553 76.404,252.553 77.000 M307.048 77.417 C 307.049 77.875,307.081 78.043,307.120 77.789 C 307.158 77.536,307.157 77.161,307.117 76.956 C 307.078 76.751,307.046 76.958,307.048 77.417 M317.212 77.500 C 317.212 77.912,317.245 78.081,317.284 77.875 C 317.324 77.669,317.324 77.331,317.284 77.125 C 317.245 76.919,317.212 77.087,317.212 77.500 M307.048 80.583 C 307.049 81.042,307.081 81.209,307.120 80.956 C 307.158 80.703,307.157 80.328,307.117 80.123 C 307.078 79.918,307.046 80.125,307.048 80.583 M252.553 81.000 C 252.553 81.596,252.584 81.840,252.621 81.542 C 252.658 81.244,252.658 80.756,252.621 80.458 C 252.584 80.160,252.553 80.404,252.553 81.000 M317.217 80.833 C 317.217 81.337,317.248 81.544,317.286 81.292 C 317.324 81.040,317.324 80.627,317.286 80.375 C 317.248 80.123,317.217 80.329,317.217 80.833 M242.552 81.250 C 242.553 81.800,242.584 82.005,242.621 81.705 C 242.658 81.406,242.657 80.956,242.619 80.705 C 242.581 80.455,242.551 80.700,242.552 81.250 M355.917 81.000 C 356.100 81.079,356.363 81.143,356.500 81.143 C 356.658 81.143,356.627 81.090,356.417 81.000 C 356.233 80.921,355.971 80.857,355.833 80.857 C 355.676 80.857,355.707 80.910,355.917 81.000 M386.167 81.713 C 386.167 81.738,386.748 82.319,387.458 83.004 L 388.750 84.250 387.504 82.958 C 386.347 81.759,386.167 81.591,386.167 81.713 M317.052 83.583 C 317.053 84.133,317.084 84.338,317.121 84.039 C 317.158 83.739,317.157 83.289,317.119 83.039 C 317.081 82.788,317.051 83.033,317.052 83.583 M252.705 83.333 C 252.705 83.654,252.740 83.785,252.782 83.625 C 252.823 83.465,252.823 83.202,252.782 83.042 C 252.740 82.881,252.705 83.012,252.705 83.333 M104.879 92.333 C 104.879 92.746,104.911 92.915,104.951 92.708 C 104.991 92.502,104.991 92.165,104.951 91.958 C 104.911 91.752,104.879 91.921,104.879 92.333 M392.217 93.333 C 392.217 93.837,392.248 94.044,392.286 93.792 C 392.324 93.540,392.324 93.127,392.286 92.875 C 392.248 92.623,392.217 92.829,392.217 93.333 M392.218 97.083 C 392.219 97.633,392.250 97.838,392.287 97.539 C 392.325 97.239,392.324 96.789,392.286 96.539 C 392.248 96.288,392.217 96.533,392.218 97.083 M335.573 98.875 L 335.083 99.417 335.625 98.927 C 336.130 98.471,336.243 98.333,336.115 98.333 C 336.086 98.333,335.842 98.577,335.573 98.875 M260.326 99.208 C 261.017 99.944,261.167 100.077,261.167 99.951 C 261.167 99.925,260.810 99.568,260.375 99.160 L 259.583 98.417 260.326 99.208 M299.242 99.375 L 298.583 100.083 299.292 99.425 C 299.950 98.812,300.077 98.667,299.950 98.667 C 299.923 98.667,299.605 98.985,299.242 99.375 M297.740 100.708 L 297.250 101.250 297.792 100.760 C 298.297 100.304,298.410 100.167,298.281 100.167 C 298.252 100.167,298.009 100.410,297.740 100.708 M378.575 103.042 L 377.917 103.750 378.625 103.091 C 379.284 102.478,379.410 102.333,379.284 102.333 C 379.257 102.333,378.938 102.652,378.575 103.042 M250.167 102.719 C 250.167 102.748,250.410 102.991,250.708 103.260 L 251.250 103.750 250.760 103.208 C 250.304 102.703,250.167 102.590,250.167 102.719 M308.073 104.208 L 307.583 104.750 308.125 104.260 C 308.630 103.804,308.743 103.667,308.615 103.667 C 308.586 103.667,308.342 103.910,308.073 104.208 M251.333 104.052 C 251.333 104.081,251.577 104.325,251.875 104.594 L 252.417 105.083 251.927 104.542 C 251.471 104.037,251.333 103.923,251.333 104.052 M306.906 105.542 L 306.417 106.083 306.958 105.594 C 307.463 105.138,307.577 105.000,307.448 105.000 C 307.419 105.000,307.175 105.244,306.906 105.542 M127.375 105.448 C 127.535 105.490,127.798 105.490,127.958 105.448 C 128.119 105.406,127.987 105.372,127.667 105.372 C 127.346 105.372,127.215 105.406,127.375 105.448 M253.083 106.000 C 253.441 106.367,253.772 106.667,253.818 106.667 C 253.863 106.667,253.608 106.367,253.250 106.000 C 252.892 105.633,252.562 105.333,252.516 105.333 C 252.470 105.333,252.725 105.633,253.083 106.000 M33.792 105.792 C 41.790 105.816,54.877 105.816,62.875 105.792 C 70.873 105.768,64.329 105.748,48.333 105.748 C 32.337 105.748,25.794 105.768,33.792 105.792 M276.208 106.948 C 276.369 106.990,276.631 106.990,276.792 106.948 C 276.952 106.906,276.821 106.872,276.500 106.872 C 276.179 106.872,276.048 106.906,276.208 106.948 M283.042 106.948 C 283.202 106.990,283.465 106.990,283.625 106.948 C 283.785 106.906,283.654 106.872,283.333 106.872 C 283.012 106.872,282.881 106.906,283.042 106.948 M279.461 107.121 C 279.761 107.158,280.211 107.157,280.461 107.119 C 280.712 107.081,280.467 107.051,279.917 107.052 C 279.367 107.053,279.162 107.084,279.461 107.121 M362.049 107.124 C 362.764 107.155,363.889 107.155,364.549 107.124 C 365.210 107.092,364.625 107.066,363.250 107.067 C 361.875 107.067,361.335 107.093,362.049 107.124 M386.661 108.458 L 385.750 109.417 386.708 108.506 C 387.599 107.659,387.743 107.500,387.619 107.500 C 387.593 107.500,387.162 107.931,386.661 108.458 M265.000 113.763 C 265.000 113.875,265.866 114.190,265.948 114.107 C 265.986 114.069,265.788 113.959,265.509 113.861 C 265.229 113.764,265.000 113.719,265.000 113.763 M161.667 115.500 C 161.323 115.610,161.309 115.636,161.583 115.648 C 161.767 115.655,162.029 115.589,162.167 115.500 C 162.459 115.311,162.256 115.311,161.667 115.500 M125.875 115.615 C 126.035 115.657,126.298 115.657,126.458 115.615 C 126.619 115.573,126.487 115.539,126.167 115.539 C 125.846 115.539,125.715 115.573,125.875 115.615 M127.875 115.782 C 128.035 115.823,128.298 115.823,128.458 115.782 C 128.619 115.740,128.487 115.705,128.167 115.705 C 127.846 115.705,127.715 115.740,127.875 115.782 M275.127 116.285 C 275.334 116.324,275.634 116.323,275.794 116.281 C 275.953 116.239,275.783 116.207,275.417 116.209 C 275.050 116.211,274.920 116.245,275.127 116.285 M284.127 116.285 C 284.334 116.324,284.634 116.323,284.794 116.281 C 284.953 116.239,284.783 116.207,284.417 116.209 C 284.050 116.211,283.920 116.245,284.127 116.285 M279.125 116.455 C 279.515 116.490,280.152 116.490,280.542 116.455 C 280.931 116.420,280.612 116.392,279.833 116.392 C 279.054 116.392,278.735 116.420,279.125 116.455 " stroke="none" fill="#848484" fillRule="evenodd"></path><path id="path4" d="M12.167 10.669 C 11.991 10.784,12.090 10.801,12.500 10.726 C 13.219 10.594,13.354 10.499,12.819 10.503 C 12.598 10.504,12.304 10.579,12.167 10.669 M78.000 10.564 C 78.000 10.600,78.221 10.661,78.491 10.701 C 78.761 10.741,78.944 10.712,78.898 10.637 C 78.815 10.503,78.000 10.437,78.000 10.564 M158.438 10.632 C 158.393 10.704,158.614 10.734,158.928 10.697 C 159.243 10.660,159.500 10.601,159.500 10.565 C 159.500 10.440,158.519 10.501,158.438 10.632 M161.000 10.564 C 161.000 10.600,161.221 10.661,161.491 10.701 C 161.761 10.741,161.944 10.712,161.898 10.637 C 161.815 10.503,161.000 10.437,161.000 10.564 M81.514 12.603 C 81.736 12.889,81.950 13.093,81.991 13.056 C 82.032 13.020,81.851 12.786,81.589 12.537 L 81.112 12.083 81.514 12.603 M82.274 14.333 C 82.406 15.052,82.501 15.188,82.497 14.653 C 82.496 14.431,82.421 14.137,82.331 14.000 C 82.216 13.824,82.199 13.923,82.274 14.333 M154.916 63.250 C 154.916 89.925,154.935 100.813,154.958 87.445 C 154.982 74.077,154.982 52.252,154.958 38.945 C 154.935 25.638,154.916 36.575,154.916 63.250 M165.374 33.651 C 165.333 51.876,165.334 51.885,165.667 51.583 C 166.052 51.235,166.123 51.024,165.751 51.333 C 165.530 51.516,165.497 49.487,165.458 33.478 L 165.415 15.417 165.374 33.651 M82.353 16.528 C 82.342 16.681,82.290 16.943,82.237 17.111 C 82.147 17.401,82.151 17.401,82.332 17.120 C 82.437 16.956,82.489 16.694,82.447 16.536 C 82.379 16.278,82.370 16.278,82.353 16.528 M109.375 18.619 C 109.627 18.658,110.040 18.658,110.292 18.619 C 110.544 18.581,110.337 18.550,109.833 18.550 C 109.329 18.550,109.123 18.581,109.375 18.619 M112.181 19.050 C 112.219 19.078,112.475 19.233,112.750 19.394 L 113.250 19.686 112.857 19.343 C 112.640 19.154,112.384 19.000,112.287 19.000 C 112.190 19.000,112.142 19.023,112.181 19.050 M33.875 20.792 C 41.919 20.816,55.081 20.816,63.125 20.792 C 71.169 20.768,64.588 20.748,48.500 20.748 C 32.412 20.748,25.831 20.768,33.875 20.792 M104.707 33.872 L 104.667 44.661 99.958 44.708 L 95.250 44.755 99.964 44.794 C 103.610 44.825,104.695 44.786,104.757 44.625 C 104.801 44.510,104.816 39.617,104.792 33.750 L 104.747 23.083 104.707 33.872 M188.044 41.286 C 188.297 41.325,188.672 41.324,188.877 41.284 C 189.082 41.244,188.875 41.213,188.417 41.214 C 187.958 41.216,187.791 41.248,188.044 41.286 M191.042 41.286 C 191.294 41.324,191.706 41.324,191.958 41.286 C 192.210 41.248,192.004 41.217,191.500 41.217 C 190.996 41.217,190.790 41.248,191.042 41.286 M185.627 41.451 C 185.834 41.491,186.134 41.490,186.294 41.448 C 186.453 41.406,186.283 41.374,185.917 41.375 C 185.550 41.377,185.420 41.411,185.627 41.451 M193.875 41.448 C 194.035 41.490,194.298 41.490,194.458 41.448 C 194.619 41.406,194.487 41.372,194.167 41.372 C 193.846 41.372,193.715 41.406,193.875 41.448 M279.048 41.457 C 279.578 41.490,280.403 41.490,280.881 41.456 C 281.359 41.422,280.925 41.395,279.917 41.396 C 278.908 41.396,278.517 41.424,279.048 41.457 M361.701 41.457 C 362.316 41.489,363.366 41.489,364.034 41.457 C 364.703 41.426,364.200 41.399,362.917 41.399 C 361.633 41.399,361.086 41.425,361.701 41.457 M276.958 41.618 C 277.165 41.657,277.502 41.657,277.708 41.618 C 277.915 41.578,277.746 41.545,277.333 41.545 C 276.921 41.545,276.752 41.578,276.958 41.618 M282.377 41.620 C 282.631 41.658,283.006 41.657,283.211 41.617 C 283.416 41.578,283.208 41.546,282.750 41.548 C 282.292 41.549,282.124 41.581,282.377 41.620 M286.500 42.000 C 286.729 42.073,287.104 42.132,287.333 42.130 C 287.708 42.128,287.699 42.114,287.250 42.000 C 286.545 41.821,285.940 41.821,286.500 42.000 M355.500 42.000 C 354.940 42.179,355.545 42.179,356.250 42.000 C 356.699 41.886,356.708 41.872,356.333 41.870 C 356.104 41.868,355.729 41.927,355.500 42.000 M177.042 43.505 C 176.484 43.730,176.588 43.843,177.167 43.642 C 177.442 43.546,177.667 43.437,177.667 43.400 C 177.667 43.301,177.464 43.336,177.042 43.505 M202.833 43.389 C 202.833 43.432,203.075 43.552,203.371 43.655 C 203.667 43.758,203.836 43.774,203.746 43.690 C 203.556 43.512,202.833 43.274,202.833 43.389 M119.137 44.792 C 121.366 44.818,124.966 44.818,127.137 44.791 C 129.307 44.765,127.483 44.744,123.083 44.744 C 118.683 44.744,116.907 44.765,119.137 44.792 M212.500 48.879 C 212.500 48.904,213.081 49.486,213.792 50.171 L 215.083 51.417 213.838 50.125 C 212.680 48.925,212.500 48.757,212.500 48.879 M341.073 49.375 L 340.583 49.917 341.125 49.427 C 341.630 48.971,341.743 48.833,341.615 48.833 C 341.586 48.833,341.342 49.077,341.073 49.375 M386.917 50.167 C 387.461 50.717,387.944 51.167,387.990 51.167 C 388.035 51.167,387.628 50.717,387.083 50.167 C 386.539 49.617,386.056 49.167,386.010 49.167 C 385.965 49.167,386.372 49.617,386.917 50.167 M167.240 49.875 L 166.750 50.417 167.292 49.927 C 167.590 49.658,167.833 49.414,167.833 49.385 C 167.833 49.257,167.696 49.370,167.240 49.875 M254.573 50.542 L 254.083 51.083 254.625 50.594 C 255.130 50.138,255.243 50.000,255.115 50.000 C 255.086 50.000,254.842 50.244,254.573 50.542 M362.711 50.786 C 362.964 50.825,363.339 50.824,363.544 50.784 C 363.749 50.744,363.542 50.713,363.083 50.714 C 362.625 50.716,362.457 50.748,362.711 50.786 M279.042 50.956 C 279.477 50.990,280.190 50.990,280.625 50.956 C 281.060 50.922,280.704 50.893,279.833 50.893 C 278.962 50.893,278.606 50.922,279.042 50.956 M360.295 50.954 C 360.594 50.991,361.044 50.990,361.295 50.952 C 361.545 50.914,361.300 50.884,360.750 50.885 C 360.200 50.886,359.995 50.917,360.295 50.954 M364.792 50.954 C 365.090 50.991,365.577 50.991,365.875 50.954 C 366.173 50.917,365.929 50.887,365.333 50.887 C 364.738 50.887,364.494 50.917,364.792 50.954 M276.458 51.121 C 276.756 51.158,277.244 51.158,277.542 51.121 C 277.840 51.084,277.596 51.053,277.000 51.053 C 276.404 51.053,276.160 51.084,276.458 51.121 M282.292 51.121 C 282.590 51.158,283.077 51.158,283.375 51.121 C 283.673 51.084,283.429 51.053,282.833 51.053 C 282.237 51.053,281.994 51.084,282.292 51.121 M306.250 51.667 C 306.608 52.033,306.938 52.333,306.984 52.333 C 307.030 52.333,306.775 52.033,306.417 51.667 C 306.059 51.300,305.728 51.000,305.682 51.000 C 305.637 51.000,305.892 51.300,306.250 51.667 M366.875 51.115 C 367.035 51.157,367.298 51.157,367.458 51.115 C 367.619 51.073,367.488 51.039,367.167 51.039 C 366.846 51.039,366.715 51.073,366.875 51.115 M187.542 51.290 C 188.069 51.323,188.931 51.323,189.458 51.290 C 189.985 51.257,189.554 51.230,188.500 51.230 C 187.446 51.230,187.015 51.257,187.542 51.290 M253.158 51.792 L 252.583 52.417 253.208 51.842 C 253.552 51.526,253.833 51.245,253.833 51.217 C 253.833 51.090,253.692 51.210,253.158 51.792 M388.167 51.441 C 388.167 51.531,388.410 51.825,388.708 52.094 L 389.250 52.583 388.750 52.001 C 388.475 51.680,388.231 51.387,388.208 51.348 C 388.185 51.309,388.167 51.351,388.167 51.441 M183.708 51.615 C 183.869 51.657,184.131 51.657,184.292 51.615 C 184.452 51.573,184.321 51.539,184.000 51.539 C 183.679 51.539,183.548 51.573,183.708 51.615 M193.208 51.615 C 193.369 51.657,193.631 51.657,193.792 51.615 C 193.952 51.573,193.821 51.539,193.500 51.539 C 193.179 51.539,193.048 51.573,193.208 51.615 M133.906 52.375 L 133.417 52.917 133.958 52.427 C 134.256 52.158,134.500 51.914,134.500 51.885 C 134.500 51.757,134.362 51.870,133.906 52.375 M196.250 52.167 C 196.433 52.245,196.696 52.310,196.833 52.310 C 196.991 52.310,196.960 52.257,196.750 52.167 C 196.567 52.088,196.304 52.023,196.167 52.023 C 196.009 52.023,196.040 52.076,196.250 52.167 M251.824 53.292 L 251.250 53.917 251.875 53.342 C 252.219 53.026,252.500 52.745,252.500 52.717 C 252.500 52.590,252.359 52.710,251.824 53.292 M94.476 53.709 C 94.560 53.793,94.806 53.834,95.022 53.800 C 95.356 53.747,95.333 53.724,94.870 53.647 C 94.539 53.592,94.383 53.616,94.476 53.709 M131.500 53.667 C 131.157 53.777,131.142 53.803,131.417 53.814 C 131.600 53.822,131.862 53.756,132.000 53.667 C 132.292 53.478,132.089 53.478,131.500 53.667 M350.870 53.958 C 350.471 54.348,350.464 54.367,350.825 54.086 C 351.537 53.532,351.571 53.500,351.453 53.500 C 351.390 53.500,351.128 53.706,350.870 53.958 M100.166 53.957 L 104.665 54.005 104.709 72.503 L 104.752 91.000 104.751 72.458 L 104.750 53.917 100.208 53.913 L 95.667 53.908 100.166 53.957 M119.220 53.958 C 121.403 53.985,124.928 53.985,127.053 53.958 C 129.178 53.932,127.392 53.910,123.083 53.910 C 118.775 53.910,117.036 53.932,119.220 53.958 M390.372 55.333 C 390.372 55.654,390.406 55.785,390.448 55.625 C 390.490 55.465,390.490 55.202,390.448 55.042 C 390.406 54.881,390.372 55.012,390.372 55.333 M297.500 57.250 C 297.811 57.571,298.103 57.833,298.149 57.833 C 298.195 57.833,297.978 57.571,297.667 57.250 C 297.356 56.929,297.064 56.667,297.018 56.667 C 296.972 56.667,297.189 56.929,297.500 57.250 M170.494 58.292 L 169.583 59.250 170.542 58.339 C 171.432 57.493,171.576 57.333,171.453 57.333 C 171.427 57.333,170.995 57.765,170.494 58.292 M260.494 58.792 L 259.583 59.750 260.542 58.839 C 261.432 57.993,261.576 57.833,261.453 57.833 C 261.427 57.833,260.995 58.265,260.494 58.792 M299.083 58.667 C 299.535 59.125,299.942 59.500,299.987 59.500 C 300.033 59.500,299.701 59.125,299.250 58.667 C 298.799 58.208,298.392 57.833,298.346 57.833 C 298.300 57.833,298.632 58.208,299.083 58.667 M207.167 58.552 C 207.167 58.581,207.410 58.825,207.708 59.094 L 208.250 59.583 207.760 59.042 C 207.304 58.537,207.167 58.423,207.167 58.552 M336.548 59.250 C 336.549 59.708,336.581 59.876,336.620 59.623 C 336.658 59.369,336.657 58.994,336.617 58.789 C 336.578 58.584,336.546 58.792,336.548 59.250 M388.833 59.187 C 388.252 59.696,388.252 59.697,388.787 59.341 C 389.082 59.145,389.367 58.913,389.421 58.826 C 389.582 58.565,389.449 58.647,388.833 59.187 M300.729 60.548 C 301.175 61.072,301.576 61.500,301.619 61.500 C 301.731 61.500,300.343 59.859,300.110 59.716 C 300.004 59.650,300.282 60.025,300.729 60.548 M220.695 60.509 C 220.792 60.788,220.903 60.986,220.941 60.948 C 221.023 60.866,220.709 60.000,220.596 60.000 C 220.553 60.000,220.597 60.229,220.695 60.509 M386.208 60.282 C 386.369 60.323,386.631 60.323,386.792 60.282 C 386.952 60.240,386.821 60.205,386.500 60.205 C 386.179 60.205,386.048 60.240,386.208 60.282 M346.725 61.667 C 346.725 62.446,346.754 62.765,346.789 62.375 C 346.824 61.985,346.824 61.348,346.789 60.958 C 346.754 60.569,346.725 60.887,346.725 61.667 M258.221 61.375 C 258.035 61.581,257.823 61.862,257.750 62.000 C 257.610 62.265,257.648 62.229,258.323 61.458 C 258.544 61.206,258.687 61.000,258.641 61.000 C 258.596 61.000,258.406 61.169,258.221 61.375 M66.712 63.000 C 66.712 63.413,66.745 63.581,66.784 63.375 C 66.824 63.169,66.824 62.831,66.784 62.625 C 66.745 62.419,66.712 62.587,66.712 63.000 M336.542 64.417 C 336.544 64.783,336.578 64.914,336.618 64.706 C 336.658 64.499,336.656 64.199,336.615 64.040 C 336.573 63.880,336.540 64.050,336.542 64.417 M222.268 65.583 C 222.405 66.196,222.501 66.329,222.497 65.903 C 222.496 65.727,222.419 65.471,222.326 65.333 C 222.202 65.151,222.187 65.218,222.268 65.583 M348.667 67.219 C 348.667 67.248,348.910 67.491,349.208 67.760 L 349.750 68.250 349.260 67.708 C 348.804 67.203,348.667 67.090,348.667 67.219 M165.552 68.917 C 165.553 69.467,165.584 69.672,165.621 69.372 C 165.658 69.072,165.657 68.622,165.619 68.372 C 165.581 68.122,165.551 68.367,165.552 68.917 M222.872 68.667 C 222.872 68.987,222.906 69.119,222.948 68.958 C 222.990 68.798,222.990 68.535,222.948 68.375 C 222.906 68.215,222.872 68.346,222.872 68.667 M165.414 90.667 C 165.414 101.896,165.434 106.490,165.458 100.875 C 165.483 95.260,165.483 86.073,165.458 80.458 C 165.434 74.844,165.414 79.438,165.414 90.667 M223.205 71.667 C 223.205 71.987,223.240 72.119,223.282 71.958 C 223.323 71.798,223.323 71.535,223.282 71.375 C 223.240 71.215,223.205 71.346,223.205 71.667 M212.723 72.833 C 212.723 73.521,212.752 73.802,212.788 73.458 C 212.824 73.115,212.824 72.552,212.788 72.208 C 212.752 71.865,212.723 72.146,212.723 72.833 M340.500 72.750 C 340.811 73.071,341.103 73.333,341.149 73.333 C 341.195 73.333,340.978 73.071,340.667 72.750 C 340.356 72.429,340.064 72.167,340.018 72.167 C 339.972 72.167,340.189 72.429,340.500 72.750 M358.750 72.333 C 358.933 72.412,359.196 72.477,359.333 72.477 C 359.491 72.477,359.460 72.424,359.250 72.333 C 359.067 72.255,358.804 72.190,358.667 72.190 C 358.509 72.190,358.540 72.243,358.750 72.333 M316.845 72.681 C 316.851 72.902,316.925 73.233,317.008 73.417 C 317.113 73.649,317.128 73.548,317.057 73.083 C 316.939 72.309,316.828 72.098,316.845 72.681 M223.414 92.250 C 223.414 102.975,223.434 107.338,223.458 101.945 C 223.483 96.553,223.483 87.778,223.458 82.445 C 223.434 77.113,223.414 81.525,223.414 92.250 M242.550 74.500 C 242.550 75.004,242.581 75.210,242.619 74.958 C 242.658 74.706,242.658 74.294,242.619 74.042 C 242.581 73.790,242.550 73.996,242.550 74.500 M341.833 74.052 C 341.833 74.081,342.077 74.325,342.375 74.594 L 342.917 75.083 342.427 74.542 C 341.971 74.037,341.833 73.923,341.833 74.052 M212.914 92.833 C 212.914 102.871,212.934 106.977,212.958 101.958 C 212.983 96.940,212.983 88.727,212.958 83.708 C 212.934 78.690,212.914 82.796,212.914 92.833 M306.879 75.500 C 306.879 75.912,306.911 76.081,306.951 75.875 C 306.991 75.669,306.991 75.331,306.951 75.125 C 306.911 74.919,306.879 75.087,306.879 75.500 M317.212 75.667 C 317.212 76.079,317.245 76.248,317.284 76.042 C 317.324 75.835,317.324 75.498,317.284 75.292 C 317.245 75.085,317.212 75.254,317.212 75.667 M252.723 76.833 C 252.723 77.521,252.752 77.802,252.788 77.458 C 252.824 77.115,252.824 76.552,252.788 76.208 C 252.752 75.865,252.723 76.146,252.723 76.833 M242.403 79.083 C 242.403 80.917,242.428 81.689,242.457 80.801 C 242.487 79.912,242.488 78.412,242.458 77.467 C 242.428 76.523,242.404 77.250,242.403 79.083 M317.392 79.167 C 317.392 79.946,317.420 80.265,317.455 79.875 C 317.490 79.485,317.490 78.848,317.455 78.458 C 317.420 78.069,317.392 78.387,317.392 79.167 M252.723 81.000 C 252.723 81.688,252.752 81.969,252.788 81.625 C 252.824 81.281,252.824 80.719,252.788 80.375 C 252.752 80.031,252.723 80.313,252.723 81.000 M352.761 80.148 C 352.938 80.310,353.971 80.582,353.814 80.425 C 353.758 80.369,353.463 80.252,353.159 80.164 C 352.855 80.077,352.676 80.070,352.761 80.148 M386.167 81.546 C 386.167 81.571,386.748 82.152,387.458 82.838 L 388.750 84.083 387.504 82.792 C 386.347 81.592,386.167 81.424,386.167 81.546 M306.879 82.500 C 306.879 82.912,306.911 83.081,306.951 82.875 C 306.991 82.669,306.991 82.331,306.951 82.125 C 306.911 81.919,306.879 82.087,306.879 82.500 M317.217 82.833 C 317.217 83.337,317.248 83.544,317.286 83.292 C 317.324 83.040,317.324 82.627,317.286 82.375 C 317.248 82.123,317.217 82.329,317.217 82.833 M242.548 83.583 C 242.549 84.042,242.581 84.209,242.620 83.956 C 242.658 83.703,242.657 83.328,242.617 83.123 C 242.578 82.918,242.546 83.125,242.548 83.583 M364.514 82.895 C 364.552 82.929,364.958 83.001,365.417 83.054 C 365.979 83.118,366.114 83.104,365.833 83.008 C 365.417 82.867,364.383 82.778,364.514 82.895 M371.333 84.472 C 371.471 84.557,371.771 84.676,372.000 84.738 C 372.290 84.815,372.340 84.802,372.167 84.695 C 372.029 84.610,371.729 84.490,371.500 84.429 C 371.210 84.351,371.160 84.365,371.333 84.472 M316.940 85.035 C 316.884 85.245,316.844 85.567,316.852 85.750 C 316.860 85.933,316.935 85.791,317.019 85.433 C 317.182 84.741,317.112 84.392,316.940 85.035 M375.167 85.908 C 375.167 85.954,375.392 86.108,375.667 86.250 C 375.942 86.392,376.167 86.471,376.167 86.425 C 376.167 86.379,375.942 86.226,375.667 86.083 C 375.392 85.941,375.167 85.862,375.167 85.908 M253.523 86.833 C 253.523 86.971,253.588 87.233,253.667 87.417 C 253.757 87.627,253.810 87.658,253.810 87.500 C 253.810 87.362,253.745 87.100,253.667 86.917 C 253.576 86.707,253.523 86.676,253.523 86.833 M316.372 88.333 C 316.372 88.654,316.406 88.785,316.448 88.625 C 316.490 88.465,316.490 88.202,316.448 88.042 C 316.406 87.881,316.372 88.013,316.372 88.333 M115.218 90.750 C 115.219 91.300,115.250 91.505,115.287 91.205 C 115.325 90.906,115.324 90.456,115.286 90.205 C 115.248 89.955,115.217 90.200,115.218 90.750 M254.512 90.083 C 254.512 90.175,254.619 90.438,254.750 90.667 C 254.881 90.896,254.988 91.008,254.988 90.917 C 254.988 90.825,254.881 90.563,254.750 90.333 C 254.619 90.104,254.512 89.992,254.512 90.083 M381.861 92.675 C 381.959 92.955,382.069 93.153,382.107 93.115 C 382.190 93.032,381.875 92.167,381.763 92.167 C 381.719 92.167,381.764 92.395,381.861 92.675 M105.033 94.750 C 105.033 94.933,105.093 95.271,105.167 95.500 C 105.272 95.830,105.300 95.847,105.300 95.583 C 105.300 95.400,105.240 95.063,105.167 94.833 C 105.061 94.503,105.033 94.486,105.033 94.750 M116.262 96.167 C 116.324 96.396,116.443 96.696,116.528 96.833 C 116.635 97.007,116.649 96.956,116.571 96.667 C 116.510 96.438,116.390 96.138,116.305 96.000 C 116.198 95.826,116.185 95.877,116.262 96.167 M337.417 97.667 C 336.992 97.849,337.430 97.849,338.000 97.667 C 338.335 97.559,338.351 97.532,338.083 97.528 C 337.900 97.526,337.600 97.588,337.417 97.667 M340.167 97.642 C 340.304 97.722,340.642 97.837,340.917 97.896 C 341.237 97.966,341.327 97.952,341.167 97.858 C 341.029 97.778,340.692 97.663,340.417 97.604 C 340.097 97.534,340.007 97.548,340.167 97.642 M335.242 99.042 L 334.583 99.750 335.292 99.091 C 335.950 98.478,336.077 98.333,335.950 98.333 C 335.923 98.333,335.605 98.652,335.242 99.042 M392.095 98.762 C 392.034 99.006,392.016 99.238,392.055 99.277 C 392.094 99.317,392.177 99.149,392.238 98.905 C 392.299 98.661,392.317 98.429,392.278 98.389 C 392.239 98.350,392.157 98.518,392.095 98.762 M260.583 99.333 C 261.035 99.792,261.442 100.167,261.487 100.167 C 261.533 100.167,261.201 99.792,260.750 99.333 C 260.299 98.875,259.892 98.500,259.846 98.500 C 259.800 98.500,260.132 98.875,260.583 99.333 M299.167 99.250 C 298.762 99.662,298.468 100.000,298.514 100.000 C 298.560 100.000,298.928 99.662,299.333 99.250 C 299.738 98.837,300.032 98.500,299.986 98.500 C 299.940 98.500,299.572 98.837,299.167 99.250 M118.164 99.751 C 118.828 100.551,118.884 100.602,118.703 100.248 C 118.608 100.064,118.355 99.764,118.140 99.583 C 117.764 99.264,117.765 99.270,118.164 99.751 M297.491 100.792 L 296.917 101.417 297.542 100.842 C 298.123 100.308,298.243 100.167,298.116 100.167 C 298.088 100.167,297.807 100.448,297.491 100.792 M261.833 100.385 C 261.833 100.414,262.077 100.658,262.375 100.927 L 262.917 101.417 262.427 100.875 C 261.971 100.370,261.833 100.257,261.833 100.385 M344.833 100.885 C 344.833 100.914,345.077 101.158,345.375 101.427 L 345.917 101.917 345.427 101.375 C 344.971 100.870,344.833 100.757,344.833 100.885 M333.723 102.667 C 333.723 103.354,333.752 103.635,333.788 103.292 C 333.824 102.948,333.824 102.385,333.788 102.042 C 333.752 101.698,333.723 101.979,333.723 102.667 M309.427 102.797 C 308.840 103.501,308.828 103.531,309.317 103.083 C 309.779 102.659,310.287 101.988,310.131 102.005 C 310.105 102.008,309.788 102.365,309.427 102.797 M378.575 102.875 L 377.917 103.583 378.625 102.925 C 379.284 102.312,379.410 102.167,379.284 102.167 C 379.257 102.167,378.938 102.485,378.575 102.875 M250.333 103.052 C 250.333 103.081,250.577 103.325,250.875 103.594 L 251.417 104.083 250.927 103.542 C 250.471 103.037,250.333 102.923,250.333 103.052 M292.792 103.844 C 292.265 104.116,291.833 104.376,291.833 104.422 C 291.833 104.467,292.283 104.278,292.833 104.000 C 293.383 103.722,293.833 103.459,293.833 103.414 C 293.833 103.303,293.864 103.290,292.792 103.844 M376.792 104.095 C 376.169 104.433,376.207 104.574,376.833 104.250 C 377.108 104.108,377.333 103.956,377.333 103.912 C 377.333 103.805,377.315 103.811,376.792 104.095 M123.667 104.250 C 123.896 104.381,124.158 104.488,124.250 104.488 C 124.342 104.488,124.229 104.381,124.000 104.250 C 123.771 104.119,123.508 104.012,123.417 104.012 C 123.325 104.012,123.438 104.119,123.667 104.250 M251.333 104.219 C 251.333 104.248,251.577 104.491,251.875 104.760 L 252.417 105.250 251.927 104.708 C 251.471 104.203,251.333 104.090,251.333 104.219 M127.292 105.284 C 127.498 105.324,127.835 105.324,128.042 105.284 C 128.248 105.245,128.079 105.212,127.667 105.212 C 127.254 105.212,127.085 105.245,127.292 105.284 M306.411 106.208 L 305.417 107.250 306.458 106.255 C 307.031 105.708,307.500 105.239,307.500 105.214 C 307.500 105.090,307.336 105.241,306.411 106.208 M128.794 105.451 C 129.001 105.491,129.301 105.490,129.460 105.448 C 129.620 105.406,129.450 105.374,129.083 105.375 C 128.717 105.377,128.586 105.411,128.794 105.451 M253.083 106.167 C 253.441 106.533,253.772 106.833,253.818 106.833 C 253.863 106.833,253.608 106.533,253.250 106.167 C 252.892 105.800,252.562 105.500,252.516 105.500 C 252.470 105.500,252.725 105.800,253.083 106.167 M273.583 106.326 C 273.903 106.471,274.796 106.565,274.653 106.439 C 274.615 106.405,274.283 106.332,273.917 106.276 C 273.452 106.205,273.351 106.220,273.583 106.326 M370.500 106.333 C 369.930 106.453,369.928 106.456,370.417 106.466 C 370.692 106.472,371.067 106.412,371.250 106.333 C 371.651 106.161,371.318 106.161,370.500 106.333 M276.208 106.782 C 276.369 106.823,276.631 106.823,276.792 106.782 C 276.952 106.740,276.821 106.705,276.500 106.705 C 276.179 106.705,276.048 106.740,276.208 106.782 M282.960 106.785 C 283.168 106.824,283.468 106.823,283.627 106.781 C 283.786 106.739,283.617 106.707,283.250 106.709 C 282.883 106.711,282.753 106.745,282.960 106.785 M278.625 106.957 C 279.290 106.989,280.377 106.989,281.042 106.957 C 281.706 106.925,281.162 106.900,279.833 106.900 C 278.504 106.900,277.960 106.925,278.625 106.957 M361.708 106.958 C 362.877 106.987,364.790 106.987,365.958 106.958 C 367.127 106.929,366.171 106.906,363.833 106.906 C 361.496 106.906,360.540 106.929,361.708 106.958 M386.911 108.375 L 385.917 109.417 386.958 108.422 C 387.531 107.875,388.000 107.406,388.000 107.380 C 388.000 107.257,387.836 107.407,386.911 108.375 M112.750 109.500 C 113.108 109.867,113.438 110.167,113.484 110.167 C 113.530 110.167,113.275 109.867,112.917 109.500 C 112.559 109.133,112.228 108.833,112.182 108.833 C 112.137 108.833,112.392 109.133,112.750 109.500 M82.274 109.500 C 82.406 110.219,82.501 110.354,82.497 109.819 C 82.496 109.598,82.421 109.304,82.331 109.167 C 82.216 108.991,82.199 109.090,82.274 109.500 M137.992 109.713 C 138.073 110.399,138.076 110.403,138.133 109.854 C 138.165 109.544,138.127 109.227,138.050 109.150 C 137.972 109.072,137.946 109.325,137.992 109.713 M300.534 110.738 C 299.760 111.286,299.651 111.442,300.304 111.068 C 300.609 110.893,300.937 110.656,301.033 110.542 C 301.280 110.247,301.164 110.293,300.534 110.738 M138.039 111.500 C 138.039 111.821,138.073 111.952,138.115 111.792 C 138.157 111.631,138.157 111.369,138.115 111.208 C 138.073 111.048,138.039 111.179,138.039 111.500 M220.850 115.098 C 220.539 115.319,220.366 115.500,220.466 115.500 C 220.566 115.500,220.859 115.315,221.116 115.089 C 221.705 114.570,221.587 114.574,220.850 115.098 M267.667 114.809 C 267.804 114.889,268.142 115.004,268.417 115.063 C 268.737 115.132,268.827 115.119,268.667 115.025 C 268.529 114.944,268.192 114.830,267.917 114.770 C 267.597 114.701,267.507 114.715,267.667 114.809 M350.500 114.826 C 350.637 114.919,350.894 114.996,351.069 114.997 C 351.496 115.001,351.363 114.905,350.750 114.768 C 350.385 114.687,350.317 114.702,350.500 114.826 M126.294 115.785 C 126.501 115.824,126.801 115.823,126.960 115.781 C 127.120 115.739,126.950 115.707,126.583 115.709 C 126.217 115.711,126.086 115.745,126.294 115.785 M29.555 115.958 C 38.431 115.982,52.906 115.982,61.722 115.958 C 70.537 115.934,63.275 115.915,45.583 115.915 C 27.892 115.915,20.679 115.934,29.555 115.958 M129.542 115.957 C 130.160 115.989,131.173 115.989,131.792 115.957 C 132.410 115.925,131.904 115.899,130.667 115.899 C 129.429 115.899,128.923 115.925,129.542 115.957 M355.375 115.948 C 355.535 115.990,355.798 115.990,355.958 115.948 C 356.119 115.906,355.988 115.872,355.667 115.872 C 355.346 115.872,355.215 115.906,355.375 115.948 M370.417 116.000 C 369.971 116.113,369.962 116.127,370.333 116.127 C 370.563 116.127,370.975 116.070,371.250 116.000 C 371.696 115.887,371.705 115.873,371.333 115.873 C 371.104 115.873,370.692 115.930,370.417 116.000 M277.125 116.451 C 277.331 116.491,277.669 116.491,277.875 116.451 C 278.081 116.411,277.912 116.379,277.500 116.379 C 277.087 116.379,276.919 116.411,277.125 116.451 M282.042 116.453 C 282.294 116.491,282.706 116.491,282.958 116.453 C 283.210 116.415,283.004 116.383,282.500 116.383 C 281.996 116.383,281.790 116.415,282.042 116.453 M360.292 116.455 C 360.681 116.490,361.319 116.490,361.708 116.455 C 362.098 116.420,361.779 116.392,361.000 116.392 C 360.221 116.392,359.902 116.420,360.292 116.455 M365.380 116.456 C 365.818 116.490,366.493 116.490,366.880 116.455 C 367.267 116.420,366.908 116.392,366.083 116.392 C 365.258 116.393,364.942 116.422,365.380 116.456 M279.213 116.623 C 279.652 116.657,280.327 116.657,280.713 116.622 C 281.100 116.587,280.742 116.559,279.917 116.559 C 279.092 116.560,278.775 116.588,279.213 116.623 " stroke="none" fill="#adadad" fillRule="evenodd"></path></g></svg>