<svg id="svg" version="1.1" xmlns="http://www.w3.org/2000/svg" xmlns:xlink="http://www.w3.org/1999/xlink" width="400" height="555.5555555555555" viewBox="0, 0, 400,555.5555555555555"><g id="svgg"><path id="path0" d="M88.800 1.409 C 88.800 2.494,89.163 3.212,90.380 4.532 C 91.731 5.997,92.024 6.649,92.402 9.023 C 92.891 12.098,93.237 12.767,95.633 15.277 C 97.008 16.716,97.373 17.461,97.855 19.800 C 98.684 23.827,98.611 23.680,101.111 26.292 C 104.154 29.470,104.496 29.612,110.138 30.022 C 112.812 30.216,167.222 30.381,231.048 30.388 L 347.097 30.400 347.368 32.796 C 347.680 35.557,348.172 36.000,350.924 36.000 L 352.701 36.000 352.885 38.214 C 353.116 41.010,353.436 41.308,356.441 41.526 L 358.895 41.703 358.647 43.507 C 358.511 44.500,358.400 124.487,358.400 221.256 L 358.400 397.200 356.100 397.204 C 351.587 397.213,348.614 398.652,348.165 401.045 C 347.829 402.837,348.946 402.751,323.600 402.942 C 297.851 403.136,297.004 403.296,294.366 408.466 C 292.378 412.364,293.613 417.600,296.521 417.600 C 297.226 417.600,298.000 419.581,298.000 421.387 C 298.000 424.678,299.749 427.929,301.863 428.569 C 302.919 428.889,303.113 429.368,303.610 432.872 C 304.131 436.546,304.908 438.275,306.413 439.109 C 308.602 440.322,308.804 440.563,309.307 442.561 C 310.329 446.623,312.543 446.900,342.573 446.718 L 362.071 446.600 362.836 445.656 C 363.329 445.047,363.600 444.088,363.600 442.956 L 363.600 441.200 368.571 441.200 C 374.330 441.200,374.633 441.049,375.040 437.983 L 375.303 436.000 377.385 436.000 C 382.824 436.000,385.594 434.738,385.606 432.256 C 385.615 430.495,385.955 430.152,387.955 429.891 C 390.838 429.514,391.497 428.022,391.571 421.700 L 391.600 419.200 393.700 419.194 C 396.590 419.185,396.914 418.886,397.120 416.032 L 397.296 413.600 398.648 413.600 L 400.000 413.600 400.000 375.024 L 400.000 336.448 398.500 336.291 L 397.000 336.134 398.500 336.067 L 400.000 336.000 400.000 180.600 L 400.000 25.200 398.600 25.200 L 397.200 25.200 397.194 20.100 C 397.186 13.832,397.179 13.818,394.057 14.101 L 391.633 14.321 391.517 11.461 L 391.400 8.600 388.718 8.723 L 386.036 8.847 385.918 5.923 L 385.800 3.000 383.100 3.062 L 380.400 3.123 380.400 1.562 L 380.400 0.000 280.800 0.000 L 181.200 0.000 181.200 1.600 C 181.200 2.480,181.020 3.200,180.800 3.200 C 180.580 3.200,180.400 2.480,180.400 1.600 L 180.400 0.000 162.047 0.000 L 143.694 0.000 143.668 1.700 C 143.651 2.877,144.005 4.044,144.821 5.494 C 146.521 8.513,146.432 8.800,143.800 8.800 L 141.600 8.800 141.600 4.400 L 141.600 0.000 135.400 0.000 L 129.200 0.000 129.200 1.600 L 129.200 3.200 127.200 3.200 L 125.200 3.200 125.200 1.600 C 125.200 0.720,125.020 0.000,124.800 0.000 C 124.047 0.000,124.399 2.425,125.454 4.507 C 126.602 6.771,126.409 6.742,123.700 4.242 C 122.671 3.293,122.400 2.725,122.400 1.522 C 122.400 0.084,122.331 0.000,121.149 0.000 L 119.898 0.000 120.089 1.987 C 120.194 3.079,120.127 3.878,119.940 3.763 C 119.753 3.647,119.600 2.753,119.600 1.776 L 119.600 0.000 115.400 0.000 L 111.200 0.000 111.200 1.600 C 111.200 3.162,111.167 3.200,109.800 3.200 C 108.433 3.200,108.400 3.162,108.400 1.600 C 108.400 0.720,108.220 0.000,108.000 0.000 C 107.780 0.000,107.600 0.731,107.600 1.624 C 107.600 2.604,107.442 3.149,107.200 3.000 C 106.980 2.864,106.800 2.133,106.800 1.376 L 106.800 0.000 97.800 0.000 L 88.800 0.000 88.800 1.409 M131.983 8.500 C 131.992 8.665,131.640 8.800,131.200 8.800 C 130.523 8.800,130.403 8.539,130.417 7.100 L 130.434 5.400 131.200 6.800 C 131.622 7.570,131.974 8.335,131.983 8.500 M151.997 10.105 L 152.742 12.200 152.783 9.600 C 152.822 7.196,152.871 7.060,153.427 7.795 C 153.792 8.279,153.866 8.645,153.614 8.729 C 152.975 8.942,153.130 13.674,153.806 14.567 C 154.237 15.136,154.272 15.472,153.944 15.867 C 152.794 17.253,151.860 15.760,150.650 10.600 C 149.463 5.539,150.269 5.243,151.997 10.105 M136.230 16.933 C 137.056 16.616,138.000 17.531,138.000 18.649 C 138.000 19.348,138.222 19.600,138.838 19.600 C 139.299 19.600,140.154 19.872,140.738 20.205 C 141.322 20.538,142.464 21.033,143.275 21.305 C 144.596 21.748,137.323 22.073,134.931 21.678 C 134.060 21.534,132.000 19.534,132.032 18.864 C 132.058 18.315,132.103 18.304,132.292 18.800 C 132.510 19.374,133.177 19.982,133.600 19.993 C 133.710 19.996,133.817 19.494,133.839 18.879 C 133.893 17.291,135.347 15.059,135.525 16.291 C 135.607 16.857,135.850 17.079,136.230 16.933 M103.560 18.700 C 103.948 19.446,103.923 19.600,103.414 19.600 C 103.015 19.600,102.800 19.226,102.800 18.533 C 102.800 17.361,102.871 17.376,103.560 18.700 M136.297 22.575 C 137.952 22.976,138.262 23.141,137.400 23.161 C 135.697 23.199,132.923 22.300,132.100 21.442 C 131.424 20.738,131.444 20.735,132.697 21.365 C 133.410 21.724,135.030 22.268,136.297 22.575 M133.476 23.457 C 133.278 23.656,131.200 22.901,131.200 22.631 C 131.200 22.527,131.749 22.633,132.420 22.867 C 133.092 23.101,133.567 23.367,133.476 23.457 M219.500 23.876 C 219.115 23.976,218.485 23.976,218.100 23.876 C 217.715 23.775,218.030 23.693,218.800 23.693 C 219.570 23.693,219.885 23.775,219.500 23.876 M132.026 25.130 C 131.253 25.204,130.451 25.023,130.128 24.699 C 129.648 24.219,129.839 24.201,131.466 24.570 C 133.307 24.987,133.324 25.004,132.026 25.130 M223.500 24.276 C 223.115 24.376,222.485 24.376,222.100 24.276 C 221.715 24.175,222.030 24.093,222.800 24.093 C 223.570 24.093,223.885 24.175,223.500 24.276 M161.967 25.056 C 162.058 25.135,161.518 25.202,160.767 25.205 C 160.015 25.208,158.950 25.314,158.400 25.440 C 157.666 25.608,157.550 25.563,157.965 25.271 C 158.415 24.954,158.334 24.835,157.565 24.689 C 157.034 24.588,157.770 24.597,159.200 24.709 C 160.630 24.820,161.875 24.977,161.967 25.056 M185.967 25.055 C 186.272 25.321,180.619 25.110,179.400 24.810 C 178.740 24.648,179.910 24.604,182.000 24.712 C 184.090 24.821,185.875 24.975,185.967 25.055 M25.284 25.147 C 19.736 25.433,19.616 25.502,19.606 28.443 L 19.600 30.286 17.166 30.540 C 13.895 30.882,13.868 30.911,14.093 33.755 L 14.288 36.200 11.717 36.219 C 8.425 36.244,8.300 36.441,8.545 41.200 C 8.841 46.942,8.743 47.199,6.253 47.206 C 5.124 47.209,3.970 47.358,3.690 47.536 C 2.935 48.015,2.933 423.984,3.689 424.463 C 3.970 424.642,5.124 424.791,6.253 424.794 C 8.789 424.801,8.875 425.021,8.534 430.616 C 8.230 435.599,8.489 436.000,12.024 436.000 L 14.391 436.000 14.295 438.500 L 14.200 441.000 16.900 441.118 L 19.600 441.237 19.600 443.390 C 19.600 446.634,19.903 446.800,25.829 446.800 L 30.800 446.800 30.806 448.900 C 30.816 452.160,30.850 452.181,36.568 452.332 L 41.568 452.465 41.839 454.863 C 42.192 457.982,42.245 458.000,51.326 457.999 L 58.600 457.999 58.462 460.213 C 58.256 463.519,58.400 463.600,64.449 463.600 L 69.600 463.600 69.600 465.986 C 69.600 469.072,69.854 469.200,75.974 469.200 L 80.800 469.200 80.800 471.351 C 80.800 474.375,81.148 474.571,86.843 474.742 L 91.563 474.883 91.802 476.742 C 92.248 480.220,92.706 480.424,100.000 480.385 C 102.750 480.370,105.756 480.368,106.681 480.379 L 108.362 480.400 108.481 482.900 L 108.600 485.400 114.082 485.511 L 119.564 485.622 119.682 488.311 L 119.800 491.000 125.300 491.111 L 130.800 491.223 130.800 493.383 C 130.800 496.615,131.125 496.800,136.809 496.800 L 141.560 496.800 141.835 499.231 C 142.192 502.387,142.231 502.400,151.326 502.399 L 158.600 502.399 158.462 504.613 C 158.256 507.919,158.400 508.000,164.449 508.000 L 169.600 508.000 169.600 510.386 C 169.600 513.472,169.854 513.600,175.974 513.600 L 180.800 513.600 180.800 515.751 C 180.800 518.775,181.148 518.971,186.843 519.142 L 191.563 519.283 191.802 521.142 C 192.260 524.715,192.237 524.707,201.500 524.760 L 208.400 524.800 208.400 527.151 C 208.400 530.225,208.729 530.464,212.872 530.398 C 214.702 530.369,216.956 530.358,217.881 530.373 L 219.562 530.400 219.681 532.900 L 219.800 535.400 225.300 535.511 L 230.800 535.623 230.800 537.997 C 230.800 541.332,230.164 541.200,246.274 541.198 C 263.935 541.195,263.198 541.381,263.692 536.800 C 263.799 535.809,263.844 535.798,268.486 535.600 C 273.906 535.369,274.302 535.151,274.728 532.161 L 275.008 530.200 276.909 529.981 C 279.887 529.638,280.178 529.116,280.333 523.839 L 280.466 519.305 282.724 519.072 C 284.203 518.919,285.158 518.599,285.491 518.143 C 286.476 516.796,286.212 142.542,285.226 142.014 C 284.801 141.786,283.546 141.600,282.438 141.600 L 280.423 141.600 280.312 136.300 L 280.200 131.000 277.749 130.637 L 275.299 130.273 275.072 128.080 C 274.770 125.152,274.845 125.191,269.058 124.917 L 264.000 124.678 264.000 122.772 C 264.000 119.787,263.836 119.600,261.218 119.600 C 259.954 119.600,257.544 119.484,255.860 119.341 L 252.800 119.083 252.800 117.174 C 252.800 113.897,252.988 114.000,246.975 114.000 L 241.637 114.000 241.518 111.300 L 241.400 108.600 237.600 108.591 C 235.510 108.586,233.035 108.541,232.100 108.491 L 230.400 108.400 230.400 106.049 C 230.400 102.775,230.135 102.622,225.045 102.951 C 220.253 103.261,219.601 103.106,219.598 101.657 C 219.589 97.555,218.494 96.916,212.193 97.329 L 208.511 97.571 208.253 95.103 C 207.907 91.791,207.923 91.800,202.226 91.800 L 197.293 91.800 197.080 89.454 C 196.796 86.318,196.777 86.307,191.019 86.085 L 186.000 85.892 186.000 84.022 C 186.000 80.788,186.029 80.799,177.293 80.520 L 169.600 80.275 169.594 78.237 C 169.585 75.201,169.604 75.212,163.670 74.929 L 158.400 74.676 158.400 72.771 C 158.400 69.497,158.590 69.600,152.557 69.600 L 147.200 69.600 147.200 67.280 C 147.200 64.061,147.088 64.000,141.168 64.000 L 136.096 64.000 135.923 61.608 C 135.697 58.488,135.898 58.591,130.162 58.657 L 125.200 58.714 125.198 57.457 C 125.190 53.136,124.168 52.511,117.793 52.929 L 114.111 53.171 113.853 50.703 C 113.507 47.391,113.523 47.400,107.825 47.400 L 102.893 47.400 102.644 45.018 C 102.296 41.692,102.595 41.800,93.779 41.800 L 86.000 41.800 86.000 39.314 C 86.000 36.126,85.766 36.000,79.826 36.000 L 75.200 36.000 75.194 33.900 C 75.185 30.693,75.193 30.698,69.237 30.483 L 64.000 30.294 64.000 28.423 C 64.000 24.904,65.116 25.123,46.572 25.001 C 37.567 24.942,27.988 25.007,25.284 25.147 M333.500 25.087 C 332.895 25.178,331.905 25.178,331.300 25.087 C 330.695 24.995,331.190 24.920,332.400 24.920 C 333.610 24.920,334.105 24.995,333.500 25.087 M170.905 25.882 C 170.414 25.977,169.514 25.979,168.905 25.887 C 168.297 25.795,168.700 25.717,169.800 25.714 C 170.900 25.711,171.397 25.787,170.905 25.882 M184.713 26.693 C 183.676 26.776,181.876 26.776,180.713 26.695 C 179.551 26.614,180.400 26.547,182.600 26.546 C 184.800 26.545,185.751 26.611,184.713 26.693 M170.700 27.076 C 170.315 27.176,169.685 27.176,169.300 27.076 C 168.915 26.975,169.230 26.893,170.000 26.893 C 170.770 26.893,171.085 26.975,170.700 27.076 M202.512 27.492 C 201.584 27.576,199.964 27.577,198.912 27.495 C 197.860 27.412,198.620 27.343,200.600 27.342 C 202.580 27.341,203.440 27.408,202.512 27.492 M223.107 27.886 C 222.506 27.977,221.426 27.979,220.707 27.890 C 219.988 27.801,220.480 27.726,221.800 27.724 C 223.120 27.722,223.708 27.795,223.107 27.886 M332.307 28.686 C 331.706 28.777,330.626 28.779,329.907 28.690 C 329.188 28.601,329.680 28.526,331.000 28.524 C 332.320 28.522,332.908 28.595,332.307 28.686 M307.507 29.086 C 306.906 29.177,305.826 29.179,305.107 29.090 C 304.388 29.001,304.880 28.926,306.200 28.924 C 307.520 28.922,308.108 28.995,307.507 29.086 M365.482 114.900 C 365.387 115.395,365.309 114.990,365.309 114.000 C 365.309 113.010,365.387 112.605,365.482 113.100 C 365.578 113.595,365.578 114.405,365.482 114.900 M365.487 152.300 C 365.395 152.905,365.320 152.410,365.320 151.200 C 365.320 149.990,365.395 149.495,365.487 150.100 C 365.578 150.705,365.578 151.695,365.487 152.300 M368.283 152.495 C 368.187 152.993,368.105 152.680,368.101 151.800 C 368.096 150.920,368.175 150.513,368.275 150.895 C 368.375 151.278,368.379 151.998,368.283 152.495 M377.553 179.100 L 378.416 180.800 376.808 180.800 L 375.200 180.800 375.200 178.146 L 375.200 175.492 375.945 176.446 C 376.355 176.971,377.078 178.165,377.553 179.100 M381.314 185.594 C 381.452 186.120,381.330 186.400,380.963 186.400 C 380.626 186.400,380.400 185.989,380.400 185.376 C 380.400 184.223,380.993 184.364,381.314 185.594 M365.876 206.700 C 365.775 207.085,365.693 206.770,365.693 206.000 C 365.693 205.230,365.775 204.915,365.876 205.300 C 365.976 205.685,365.976 206.315,365.876 206.700 M364.298 232.700 C 364.226 234.845,364.167 233.090,364.167 228.800 C 364.167 224.510,364.226 222.755,364.298 224.900 C 364.370 227.045,364.370 230.555,364.298 232.700 M363.097 233.300 C 363.021 234.895,362.959 233.590,362.959 230.400 C 362.959 227.210,363.021 225.905,363.097 227.500 C 363.173 229.095,363.173 231.705,363.097 233.300 M372.129 259.714 L 374.297 264.000 371.982 264.000 C 370.523 264.000,369.579 264.185,369.430 264.500 C 369.299 264.775,369.284 264.120,369.396 263.044 C 369.508 261.968,369.600 259.733,369.600 258.078 C 369.600 256.422,369.681 255.148,369.780 255.247 C 369.880 255.346,370.937 257.356,372.129 259.714 M388.014 262.900 C 388.322 263.925,388.264 264.000,387.172 264.000 L 386.000 264.000 386.028 261.100 L 386.057 258.200 386.870 260.000 C 387.318 260.990,387.833 262.295,388.014 262.900 M368.584 264.800 C 368.833 265.963,368.794 266.113,368.349 265.687 C 368.009 265.361,367.785 264.050,367.735 262.087 C 367.660 259.135,367.670 259.096,367.969 261.200 C 368.142 262.410,368.418 264.030,368.584 264.800 M376.363 268.100 L 377.265 269.600 376.233 269.600 C 375.288 269.600,375.200 269.458,375.200 267.933 C 375.200 267.017,375.259 266.342,375.331 266.433 C 375.402 266.525,375.867 267.275,376.363 268.100 M366.294 321.500 C 366.212 322.545,366.144 321.690,366.144 319.600 C 366.144 317.510,366.212 316.655,366.294 317.700 C 366.376 318.745,366.376 320.455,366.294 321.500 M369.587 319.324 C 369.580 319.806,369.288 320.560,368.939 321.000 C 368.332 321.764,368.314 321.738,368.551 320.450 C 368.688 319.707,368.800 318.842,368.800 318.526 C 368.800 318.211,368.980 318.064,369.200 318.200 C 369.420 318.336,369.594 318.842,369.587 319.324 M365.572 330.500 C 365.513 332.394,364.858 333.099,364.828 331.300 C 364.813 330.365,364.980 329.600,365.200 329.600 C 365.420 329.600,365.587 330.005,365.572 330.500 M364.299 358.500 C 364.232 361.635,364.176 359.070,364.176 352.800 C 364.176 346.530,364.232 343.965,364.299 347.100 C 364.367 350.235,364.367 355.365,364.299 358.500 M366.197 363.941 C 365.717 366.531,365.525 364.814,365.861 360.927 L 366.200 357.000 366.323 359.800 C 366.391 361.340,366.334 363.203,366.197 363.941 M365.082 363.700 C 364.987 364.195,364.909 363.790,364.909 362.800 C 364.909 361.810,364.987 361.405,365.082 361.900 C 365.178 362.395,365.178 363.205,365.082 363.700 M368.283 363.295 C 368.187 363.793,368.105 363.480,368.101 362.600 C 368.096 361.720,368.175 361.313,368.275 361.695 C 368.375 362.078,368.379 362.798,368.283 363.295 M373.847 400.200 C 375.204 402.202,377.200 406.890,377.200 408.078 C 377.200 408.255,376.750 408.400,376.200 408.400 C 375.229 408.400,375.200 408.320,375.200 405.600 L 375.200 402.800 372.400 402.800 C 369.321 402.800,369.250 402.864,370.400 404.600 C 371.420 406.140,371.410 406.534,370.367 405.903 C 368.867 404.997,367.997 402.690,368.034 399.716 L 368.067 397.000 368.560 399.293 C 369.337 402.911,369.599 402.480,369.609 397.567 L 369.618 393.000 370.919 395.400 C 371.634 396.720,372.952 398.880,373.847 400.200 M380.692 418.291 C 380.605 419.121,380.533 418.540,380.531 417.000 C 380.529 415.460,380.600 414.781,380.689 415.491 C 380.777 416.201,380.779 417.461,380.692 418.291 M353.986 424.900 C 353.994 425.065,353.730 425.200,353.400 425.200 C 352.987 425.200,352.804 424.795,352.814 423.900 L 352.828 422.600 353.400 423.600 C 353.714 424.150,353.978 424.735,353.986 424.900 M312.520 431.200 C 312.758 431.530,312.537 431.413,312.028 430.940 C 311.414 430.369,311.217 429.899,311.442 429.540 C 311.702 429.126,311.817 429.186,311.934 429.800 C 312.017 430.240,312.281 430.870,312.520 431.200 M315.900 430.676 C 315.515 430.776,314.885 430.776,314.500 430.676 C 314.115 430.575,314.430 430.493,315.200 430.493 C 315.970 430.493,316.285 430.575,315.900 430.676 M359.800 438.000 C 359.360 438.189,358.640 438.344,358.200 438.344 L 357.400 438.344 358.200 438.000 C 358.640 437.811,359.360 437.656,359.800 437.656 L 360.600 437.656 359.800 438.000 " stroke="none" fill="#1c2c3c" fill-rule="evenodd"></path><path id="path1" d="M106.800 1.376 C 106.800 2.133,106.980 2.864,107.200 3.000 C 107.442 3.149,107.600 2.604,107.600 1.624 C 107.600 0.731,107.420 0.000,107.200 0.000 C 106.980 0.000,106.800 0.619,106.800 1.376 M108.400 1.600 C 108.400 3.162,108.433 3.200,109.800 3.200 C 111.167 3.200,111.200 3.162,111.200 1.600 C 111.200 0.038,111.167 0.000,109.800 0.000 C 108.433 0.000,108.400 0.038,108.400 1.600 M119.600 1.710 C 119.600 2.723,119.758 3.650,119.950 3.769 C 120.272 3.968,120.079 0.410,119.747 0.033 C 119.666 -0.058,119.600 0.696,119.600 1.710 M122.400 1.522 C 122.400 2.725,122.671 3.293,123.700 4.242 C 126.409 6.742,126.602 6.771,125.454 4.507 C 124.875 3.363,124.400 1.881,124.400 1.213 C 124.400 0.186,124.247 0.000,123.400 0.000 C 122.509 0.000,122.400 0.165,122.400 1.522 M125.200 1.600 L 125.200 3.200 127.200 3.200 L 129.200 3.200 129.200 1.600 L 129.200 0.000 127.200 0.000 L 125.200 0.000 125.200 1.600 M141.600 4.400 L 141.600 8.800 143.800 8.800 C 146.444 8.800,146.525 8.518,144.770 5.408 C 144.093 4.209,143.573 2.816,143.614 2.314 C 143.774 0.357,143.617 0.000,142.600 0.000 L 141.600 0.000 141.600 4.400 M180.400 1.600 C 180.400 2.480,180.580 3.200,180.800 3.200 C 181.020 3.200,181.200 2.480,181.200 1.600 C 181.200 0.720,181.020 0.000,180.800 0.000 C 180.580 0.000,180.400 0.720,180.400 1.600 M130.417 7.100 C 130.403 8.539,130.523 8.800,131.200 8.800 C 132.176 8.800,132.176 8.583,131.200 6.800 L 130.434 5.400 130.417 7.100 M149.997 7.011 C 149.986 9.537,152.190 16.400,153.012 16.400 C 153.987 16.400,154.426 15.387,153.806 14.567 C 153.130 13.674,152.975 8.942,153.614 8.729 C 153.866 8.645,153.792 8.279,153.427 7.795 C 152.871 7.060,152.822 7.196,152.783 9.600 L 152.742 12.200 151.997 10.105 C 151.051 7.443,150.002 5.821,149.997 7.011 M386.705 8.683 C 387.202 8.779,387.922 8.775,388.305 8.675 C 388.687 8.575,388.280 8.496,387.400 8.501 C 386.520 8.505,386.207 8.587,386.705 8.683 M134.639 16.592 C 134.220 17.234,133.860 18.263,133.839 18.879 C 133.817 19.494,133.710 19.996,133.600 19.993 C 133.177 19.982,132.510 19.374,132.292 18.800 C 132.103 18.304,132.058 18.315,132.032 18.864 C 132.000 19.534,134.060 21.534,134.931 21.678 C 137.323 22.073,144.596 21.748,143.275 21.305 C 142.464 21.033,141.322 20.538,140.738 20.205 C 140.154 19.872,139.299 19.600,138.838 19.600 C 138.222 19.600,138.000 19.348,138.000 18.649 C 138.000 17.531,137.056 16.616,136.230 16.933 C 135.850 17.079,135.607 16.857,135.525 16.291 C 135.408 15.478,135.354 15.496,134.639 16.592 M102.800 18.533 C 102.800 19.226,103.015 19.600,103.414 19.600 C 103.923 19.600,103.948 19.446,103.560 18.700 C 102.871 17.376,102.800 17.361,102.800 18.533 M132.100 21.442 C 132.923 22.300,135.697 23.199,137.400 23.161 C 138.262 23.141,137.952 22.976,136.297 22.575 C 135.030 22.268,133.410 21.724,132.697 21.365 C 131.444 20.735,131.424 20.738,132.100 21.442 M131.200 22.631 C 131.200 22.901,133.278 23.656,133.476 23.457 C 133.567 23.367,133.092 23.101,132.420 22.867 C 131.749 22.633,131.200 22.527,131.200 22.631 M218.100 23.876 C 218.485 23.976,219.115 23.976,219.500 23.876 C 219.885 23.775,219.570 23.693,218.800 23.693 C 218.030 23.693,217.715 23.775,218.100 23.876 M130.128 24.699 C 130.451 25.023,131.253 25.204,132.026 25.130 C 133.324 25.004,133.307 24.987,131.466 24.570 C 129.839 24.201,129.648 24.219,130.128 24.699 M222.100 24.276 C 222.485 24.376,223.115 24.376,223.500 24.276 C 223.885 24.175,223.570 24.093,222.800 24.093 C 222.030 24.093,221.715 24.175,222.100 24.276 M157.565 24.689 C 158.334 24.835,158.415 24.954,157.965 25.271 C 157.550 25.563,157.666 25.608,158.400 25.440 C 158.950 25.314,160.015 25.208,160.767 25.205 C 162.899 25.197,162.067 24.933,159.200 24.709 C 157.770 24.597,157.034 24.588,157.565 24.689 M179.400 24.810 C 180.619 25.110,186.272 25.321,185.967 25.055 C 185.875 24.975,184.090 24.821,182.000 24.712 C 179.910 24.604,178.740 24.648,179.400 24.810 M331.300 25.087 C 331.905 25.178,332.895 25.178,333.500 25.087 C 334.105 24.995,333.610 24.920,332.400 24.920 C 331.190 24.920,330.695 24.995,331.300 25.087 M168.905 25.887 C 169.514 25.979,170.414 25.977,170.905 25.882 C 171.397 25.787,170.900 25.711,169.800 25.714 C 168.700 25.717,168.297 25.795,168.905 25.887 M180.713 26.695 C 181.876 26.776,183.676 26.776,184.713 26.693 C 185.751 26.611,184.800 26.545,182.600 26.546 C 180.400 26.547,179.551 26.614,180.713 26.695 M169.300 27.076 C 169.685 27.176,170.315 27.176,170.700 27.076 C 171.085 26.975,170.770 26.893,170.000 26.893 C 169.230 26.893,168.915 26.975,169.300 27.076 M198.912 27.495 C 199.964 27.577,201.584 27.576,202.512 27.492 C 203.440 27.408,202.580 27.341,200.600 27.342 C 198.620 27.343,197.860 27.412,198.912 27.495 M220.707 27.890 C 221.426 27.979,222.506 27.977,223.107 27.886 C 223.708 27.795,223.120 27.722,221.800 27.724 C 220.480 27.726,219.988 27.801,220.707 27.890 M329.907 28.690 C 330.626 28.779,331.706 28.777,332.307 28.686 C 332.908 28.595,332.320 28.522,331.000 28.524 C 329.680 28.526,329.188 28.601,329.907 28.690 M305.107 29.090 C 305.826 29.179,306.906 29.177,307.507 29.086 C 308.108 28.995,307.520 28.922,306.200 28.924 C 304.880 28.926,304.388 29.001,305.107 29.090 M86.705 41.883 C 87.202 41.979,87.922 41.975,88.305 41.875 C 88.687 41.775,88.280 41.696,87.400 41.701 C 86.520 41.705,86.207 41.787,86.705 41.883 M358.493 42.800 C 358.493 43.570,358.575 43.885,358.676 43.500 C 358.776 43.115,358.776 42.485,358.676 42.100 C 358.575 41.715,358.493 42.030,358.493 42.800 M8.501 44.200 C 8.505 45.080,8.587 45.393,8.683 44.895 C 8.779 44.398,8.775 43.678,8.675 43.295 C 8.575 42.913,8.496 43.320,8.501 44.200 M114.500 53.076 C 114.885 53.176,115.515 53.176,115.900 53.076 C 116.285 52.975,115.970 52.893,115.200 52.893 C 114.430 52.893,114.115 52.975,114.500 53.076 M2.998 235.800 C 2.998 333.700,3.044 373.690,3.100 324.667 C 3.156 275.644,3.156 195.544,3.100 146.667 C 3.044 97.790,2.998 137.900,2.998 235.800 M125.900 58.682 C 126.395 58.778,127.205 58.778,127.700 58.682 C 128.195 58.587,127.790 58.509,126.800 58.509 C 125.810 58.509,125.405 58.587,125.900 58.682 M208.900 97.476 C 209.285 97.576,209.915 97.576,210.300 97.476 C 210.685 97.375,210.370 97.293,209.600 97.293 C 208.830 97.293,208.515 97.375,208.900 97.476 M221.305 103.087 C 221.914 103.179,222.814 103.177,223.305 103.082 C 223.797 102.987,223.300 102.911,222.200 102.914 C 221.100 102.917,220.697 102.995,221.305 103.087 M234.505 108.687 C 235.114 108.779,236.014 108.777,236.505 108.682 C 236.997 108.587,236.500 108.511,235.400 108.514 C 234.300 108.517,233.897 108.595,234.505 108.687 M365.309 114.000 C 365.309 114.990,365.387 115.395,365.482 114.900 C 365.578 114.405,365.578 113.595,365.482 113.100 C 365.387 112.605,365.309 113.010,365.309 114.000 M365.320 151.200 C 365.320 152.410,365.395 152.905,365.487 152.300 C 365.578 151.695,365.578 150.705,365.487 150.100 C 365.395 149.495,365.320 149.990,365.320 151.200 M368.101 151.800 C 368.105 152.680,368.187 152.993,368.283 152.495 C 368.379 151.998,368.375 151.278,368.275 150.895 C 368.175 150.513,368.096 150.920,368.101 151.800 M375.200 178.146 L 375.200 180.800 376.808 180.800 L 378.416 180.800 377.553 179.100 C 377.078 178.165,376.355 176.971,375.945 176.446 L 375.200 175.492 375.200 178.146 M380.400 185.376 C 380.400 185.989,380.626 186.400,380.963 186.400 C 381.330 186.400,381.452 186.120,381.314 185.594 C 380.993 184.364,380.400 184.223,380.400 185.376 M365.693 206.000 C 365.693 206.770,365.775 207.085,365.876 206.700 C 365.976 206.315,365.976 205.685,365.876 205.300 C 365.775 204.915,365.693 205.230,365.693 206.000 M364.167 228.800 C 364.167 233.090,364.226 234.845,364.298 232.700 C 364.370 230.555,364.370 227.045,364.298 224.900 C 364.226 222.755,364.167 224.510,364.167 228.800 M362.959 230.400 C 362.959 233.590,363.021 234.895,363.097 233.300 C 363.173 231.705,363.173 229.095,363.097 227.500 C 363.021 225.905,362.959 227.210,362.959 230.400 M369.600 258.078 C 369.600 259.733,369.508 261.968,369.396 263.044 C 369.284 264.120,369.299 264.775,369.430 264.500 C 369.579 264.185,370.523 264.000,371.982 264.000 L 374.297 264.000 372.129 259.714 C 370.937 257.356,369.880 255.346,369.780 255.247 C 369.681 255.148,369.600 256.422,369.600 258.078 M386.028 261.100 L 386.000 264.000 387.172 264.000 C 388.503 264.000,388.468 263.533,386.870 260.000 L 386.057 258.200 386.028 261.100 M367.735 262.087 C 367.785 264.050,368.009 265.361,368.349 265.687 C 368.794 266.113,368.833 265.963,368.584 264.800 C 368.418 264.030,368.142 262.410,367.969 261.200 C 367.670 259.096,367.660 259.135,367.735 262.087 M375.200 267.933 C 375.200 269.458,375.288 269.600,376.233 269.600 L 377.265 269.600 376.363 268.100 C 375.867 267.275,375.402 266.525,375.331 266.433 C 375.259 266.342,375.200 267.017,375.200 267.933 M366.144 319.600 C 366.144 321.690,366.212 322.545,366.294 321.500 C 366.376 320.455,366.376 318.745,366.294 317.700 C 366.212 316.655,366.144 317.510,366.144 319.600 M368.800 318.526 C 368.800 318.842,368.688 319.707,368.551 320.450 C 368.314 321.738,368.332 321.764,368.939 321.000 C 369.658 320.095,369.801 318.571,369.200 318.200 C 368.980 318.064,368.800 318.211,368.800 318.526 M364.828 331.300 C 364.850 332.617,364.934 332.820,365.200 332.200 C 365.679 331.084,365.679 329.600,365.200 329.600 C 364.980 329.600,364.813 330.365,364.828 331.300 M397.905 336.283 C 398.402 336.379,399.122 336.375,399.505 336.275 C 399.887 336.175,399.480 336.096,398.600 336.101 C 397.720 336.105,397.407 336.187,397.905 336.283 M364.176 352.800 C 364.176 359.070,364.232 361.635,364.299 358.500 C 364.367 355.365,364.367 350.235,364.299 347.100 C 364.232 343.965,364.176 346.530,364.176 352.800 M365.861 360.927 C 365.674 363.087,365.617 364.951,365.735 365.068 C 366.130 365.463,366.447 362.623,366.323 359.800 L 366.200 357.000 365.861 360.927 M364.909 362.800 C 364.909 363.790,364.987 364.195,365.082 363.700 C 365.178 363.205,365.178 362.395,365.082 361.900 C 364.987 361.405,364.909 361.810,364.909 362.800 M368.101 362.600 C 368.105 363.480,368.187 363.793,368.283 363.295 C 368.379 362.798,368.375 362.078,368.275 361.695 C 368.175 361.313,368.096 361.720,368.101 362.600 M369.609 397.567 C 369.599 402.480,369.337 402.911,368.560 399.293 L 368.067 397.000 368.034 399.716 C 367.997 402.690,368.867 404.997,370.367 405.903 C 371.410 406.534,371.420 406.140,370.400 404.600 C 369.250 402.864,369.321 402.800,372.400 402.800 L 375.200 402.800 375.200 405.600 C 375.200 408.320,375.229 408.400,376.200 408.400 C 376.750 408.400,377.200 408.255,377.200 408.078 C 377.200 406.890,375.204 402.202,373.847 400.200 C 372.952 398.880,371.634 396.720,370.919 395.400 L 369.618 393.000 369.609 397.567 M380.531 417.000 C 380.533 418.540,380.605 419.121,380.692 418.291 C 380.779 417.461,380.777 416.201,380.689 415.491 C 380.600 414.781,380.529 415.460,380.531 417.000 M352.814 423.900 C 352.804 424.795,352.987 425.200,353.400 425.200 C 354.136 425.200,354.136 424.888,353.400 423.600 L 352.828 422.600 352.814 423.900 M8.509 427.600 C 8.509 428.590,8.587 428.995,8.682 428.500 C 8.778 428.005,8.778 427.195,8.682 426.700 C 8.587 426.205,8.509 426.610,8.509 427.600 M311.442 429.540 C 311.217 429.899,311.414 430.369,312.028 430.940 C 312.537 431.413,312.758 431.530,312.520 431.200 C 312.281 430.870,312.017 430.240,311.934 429.800 C 311.817 429.186,311.702 429.126,311.442 429.540 M314.500 430.676 C 314.885 430.776,315.515 430.776,315.900 430.676 C 316.285 430.575,315.970 430.493,315.200 430.493 C 314.430 430.493,314.115 430.575,314.500 430.676 M358.200 438.000 L 357.400 438.344 358.200 438.344 C 358.640 438.344,359.360 438.189,359.800 438.000 L 360.600 437.656 359.800 437.656 C 359.360 437.656,358.640 437.811,358.200 438.000 " stroke="none" fill="#202c3c" fill-rule="evenodd"></path><path id="path2" d="M106.800 1.376 C 106.800 2.133,106.980 2.864,107.200 3.000 C 107.442 3.149,107.600 2.604,107.600 1.624 C 107.600 0.731,107.420 0.000,107.200 0.000 C 106.980 0.000,106.800 0.619,106.800 1.376 M108.400 1.600 C 108.400 3.162,108.433 3.200,109.800 3.200 C 111.167 3.200,111.200 3.162,111.200 1.600 C 111.200 0.038,111.167 0.000,109.800 0.000 C 108.433 0.000,108.400 0.038,108.400 1.600 M119.600 1.710 C 119.600 2.723,119.758 3.650,119.950 3.769 C 120.272 3.968,120.079 0.410,119.747 0.033 C 119.666 -0.058,119.600 0.696,119.600 1.710 M122.400 1.522 C 122.400 2.725,122.671 3.293,123.700 4.242 C 126.409 6.742,126.602 6.771,125.454 4.507 C 124.875 3.363,124.400 1.881,124.400 1.213 C 124.400 0.186,124.247 0.000,123.400 0.000 C 122.509 0.000,122.400 0.165,122.400 1.522 M125.200 1.600 L 125.200 3.200 127.200 3.200 L 129.200 3.200 129.200 1.600 L 129.200 0.000 127.200 0.000 L 125.200 0.000 125.200 1.600 M141.600 4.400 L 141.600 8.800 143.800 8.800 C 146.444 8.800,146.525 8.518,144.770 5.408 C 144.093 4.209,143.573 2.816,143.614 2.314 C 143.774 0.357,143.617 0.000,142.600 0.000 L 141.600 0.000 141.600 4.400 M180.400 1.600 C 180.400 2.480,180.580 3.200,180.800 3.200 C 181.020 3.200,181.200 2.480,181.200 1.600 C 181.200 0.720,181.020 0.000,180.800 0.000 C 180.580 0.000,180.400 0.720,180.400 1.600 M130.417 7.100 C 130.403 8.539,130.523 8.800,131.200 8.800 C 132.176 8.800,132.176 8.583,131.200 6.800 L 130.434 5.400 130.417 7.100 M149.997 7.011 C 149.986 9.537,152.190 16.400,153.012 16.400 C 153.987 16.400,154.426 15.387,153.806 14.567 C 153.130 13.674,152.975 8.942,153.614 8.729 C 153.866 8.645,153.792 8.279,153.427 7.795 C 152.871 7.060,152.822 7.196,152.783 9.600 L 152.742 12.200 151.997 10.105 C 151.051 7.443,150.002 5.821,149.997 7.011 M386.705 8.683 C 387.202 8.779,387.922 8.775,388.305 8.675 C 388.687 8.575,388.280 8.496,387.400 8.501 C 386.520 8.505,386.207 8.587,386.705 8.683 M134.639 16.592 C 134.220 17.234,133.860 18.263,133.839 18.879 C 133.817 19.494,133.710 19.996,133.600 19.993 C 133.177 19.982,132.510 19.374,132.292 18.800 C 132.103 18.304,132.058 18.315,132.032 18.864 C 132.000 19.534,134.060 21.534,134.931 21.678 C 137.323 22.073,144.596 21.748,143.275 21.305 C 142.464 21.033,141.322 20.538,140.738 20.205 C 140.154 19.872,139.299 19.600,138.838 19.600 C 138.222 19.600,138.000 19.348,138.000 18.649 C 138.000 17.531,137.056 16.616,136.230 16.933 C 135.850 17.079,135.607 16.857,135.525 16.291 C 135.408 15.478,135.354 15.496,134.639 16.592 M102.800 18.533 C 102.800 19.226,103.015 19.600,103.414 19.600 C 103.923 19.600,103.948 19.446,103.560 18.700 C 102.871 17.376,102.800 17.361,102.800 18.533 M132.100 21.442 C 132.923 22.300,135.697 23.199,137.400 23.161 C 138.262 23.141,137.952 22.976,136.297 22.575 C 135.030 22.268,133.410 21.724,132.697 21.365 C 131.444 20.735,131.424 20.738,132.100 21.442 M131.200 22.631 C 131.200 22.901,133.278 23.656,133.476 23.457 C 133.567 23.367,133.092 23.101,132.420 22.867 C 131.749 22.633,131.200 22.527,131.200 22.631 M218.100 23.876 C 218.485 23.976,219.115 23.976,219.500 23.876 C 219.885 23.775,219.570 23.693,218.800 23.693 C 218.030 23.693,217.715 23.775,218.100 23.876 M130.128 24.699 C 130.451 25.023,131.253 25.204,132.026 25.130 C 133.324 25.004,133.307 24.987,131.466 24.570 C 129.839 24.201,129.648 24.219,130.128 24.699 M222.100 24.276 C 222.485 24.376,223.115 24.376,223.500 24.276 C 223.885 24.175,223.570 24.093,222.800 24.093 C 222.030 24.093,221.715 24.175,222.100 24.276 M157.565 24.689 C 158.334 24.835,158.415 24.954,157.965 25.271 C 157.550 25.563,157.666 25.608,158.400 25.440 C 158.950 25.314,160.015 25.208,160.767 25.205 C 162.899 25.197,162.067 24.933,159.200 24.709 C 157.770 24.597,157.034 24.588,157.565 24.689 M179.400 24.810 C 180.619 25.110,186.272 25.321,185.967 25.055 C 185.875 24.975,184.090 24.821,182.000 24.712 C 179.910 24.604,178.740 24.648,179.400 24.810 M331.300 25.087 C 331.905 25.178,332.895 25.178,333.500 25.087 C 334.105 24.995,333.610 24.920,332.400 24.920 C 331.190 24.920,330.695 24.995,331.300 25.087 M168.905 25.887 C 169.514 25.979,170.414 25.977,170.905 25.882 C 171.397 25.787,170.900 25.711,169.800 25.714 C 168.700 25.717,168.297 25.795,168.905 25.887 M180.713 26.695 C 181.876 26.776,183.676 26.776,184.713 26.693 C 185.751 26.611,184.800 26.545,182.600 26.546 C 180.400 26.547,179.551 26.614,180.713 26.695 M169.300 27.076 C 169.685 27.176,170.315 27.176,170.700 27.076 C 171.085 26.975,170.770 26.893,170.000 26.893 C 169.230 26.893,168.915 26.975,169.300 27.076 M198.912 27.495 C 199.964 27.577,201.584 27.576,202.512 27.492 C 203.440 27.408,202.580 27.341,200.600 27.342 C 198.620 27.343,197.860 27.412,198.912 27.495 M220.707 27.890 C 221.426 27.979,222.506 27.977,223.107 27.886 C 223.708 27.795,223.120 27.722,221.800 27.724 C 220.480 27.726,219.988 27.801,220.707 27.890 M329.907 28.690 C 330.626 28.779,331.706 28.777,332.307 28.686 C 332.908 28.595,332.320 28.522,331.000 28.524 C 329.680 28.526,329.188 28.601,329.907 28.690 M305.107 29.090 C 305.826 29.179,306.906 29.177,307.507 29.086 C 308.108 28.995,307.520 28.922,306.200 28.924 C 304.880 28.926,304.388 29.001,305.107 29.090 M86.705 41.883 C 87.202 41.979,87.922 41.975,88.305 41.875 C 88.687 41.775,88.280 41.696,87.400 41.701 C 86.520 41.705,86.207 41.787,86.705 41.883 M358.493 42.800 C 358.493 43.570,358.575 43.885,358.676 43.500 C 358.776 43.115,358.776 42.485,358.676 42.100 C 358.575 41.715,358.493 42.030,358.493 42.800 M8.501 44.200 C 8.505 45.080,8.587 45.393,8.683 44.895 C 8.779 44.398,8.775 43.678,8.675 43.295 C 8.575 42.913,8.496 43.320,8.501 44.200 M114.500 53.076 C 114.885 53.176,115.515 53.176,115.900 53.076 C 116.285 52.975,115.970 52.893,115.200 52.893 C 114.430 52.893,114.115 52.975,114.500 53.076 M2.998 235.800 C 2.998 333.700,3.044 373.690,3.100 324.667 C 3.156 275.644,3.156 195.544,3.100 146.667 C 3.044 97.790,2.998 137.900,2.998 235.800 M125.900 58.682 C 126.395 58.778,127.205 58.778,127.700 58.682 C 128.195 58.587,127.790 58.509,126.800 58.509 C 125.810 58.509,125.405 58.587,125.900 58.682 M208.900 97.476 C 209.285 97.576,209.915 97.576,210.300 97.476 C 210.685 97.375,210.370 97.293,209.600 97.293 C 208.830 97.293,208.515 97.375,208.900 97.476 M221.305 103.087 C 221.914 103.179,222.814 103.177,223.305 103.082 C 223.797 102.987,223.300 102.911,222.200 102.914 C 221.100 102.917,220.697 102.995,221.305 103.087 M234.505 108.687 C 235.114 108.779,236.014 108.777,236.505 108.682 C 236.997 108.587,236.500 108.511,235.400 108.514 C 234.300 108.517,233.897 108.595,234.505 108.687 M365.309 114.000 C 365.309 114.990,365.387 115.395,365.482 114.900 C 365.578 114.405,365.578 113.595,365.482 113.100 C 365.387 112.605,365.309 113.010,365.309 114.000 M365.320 151.200 C 365.320 152.410,365.395 152.905,365.487 152.300 C 365.578 151.695,365.578 150.705,365.487 150.100 C 365.395 149.495,365.320 149.990,365.320 151.200 M368.101 151.800 C 368.105 152.680,368.187 152.993,368.283 152.495 C 368.379 151.998,368.375 151.278,368.275 150.895 C 368.175 150.513,368.096 150.920,368.101 151.800 M375.200 178.146 L 375.200 180.800 376.808 180.800 L 378.416 180.800 377.553 179.100 C 377.078 178.165,376.355 176.971,375.945 176.446 L 375.200 175.492 375.200 178.146 M380.400 185.376 C 380.400 185.989,380.626 186.400,380.963 186.400 C 381.330 186.400,381.452 186.120,381.314 185.594 C 380.993 184.364,380.400 184.223,380.400 185.376 M365.693 206.000 C 365.693 206.770,365.775 207.085,365.876 206.700 C 365.976 206.315,365.976 205.685,365.876 205.300 C 365.775 204.915,365.693 205.230,365.693 206.000 M364.167 228.800 C 364.167 233.090,364.226 234.845,364.298 232.700 C 364.370 230.555,364.370 227.045,364.298 224.900 C 364.226 222.755,364.167 224.510,364.167 228.800 M362.959 230.400 C 362.959 233.590,363.021 234.895,363.097 233.300 C 363.173 231.705,363.173 229.095,363.097 227.500 C 363.021 225.905,362.959 227.210,362.959 230.400 M369.600 258.078 C 369.600 259.733,369.508 261.968,369.396 263.044 C 369.284 264.120,369.299 264.775,369.430 264.500 C 369.579 264.185,370.523 264.000,371.982 264.000 L 374.297 264.000 372.129 259.714 C 370.937 257.356,369.880 255.346,369.780 255.247 C 369.681 255.148,369.600 256.422,369.600 258.078 M386.028 261.100 L 386.000 264.000 387.172 264.000 C 388.503 264.000,388.468 263.533,386.870 260.000 L 386.057 258.200 386.028 261.100 M367.735 262.087 C 367.785 264.050,368.009 265.361,368.349 265.687 C 368.794 266.113,368.833 265.963,368.584 264.800 C 368.418 264.030,368.142 262.410,367.969 261.200 C 367.670 259.096,367.660 259.135,367.735 262.087 M375.200 267.933 C 375.200 269.458,375.288 269.600,376.233 269.600 L 377.265 269.600 376.363 268.100 C 375.867 267.275,375.402 266.525,375.331 266.433 C 375.259 266.342,375.200 267.017,375.200 267.933 M366.144 319.600 C 366.144 321.690,366.212 322.545,366.294 321.500 C 366.376 320.455,366.376 318.745,366.294 317.700 C 366.212 316.655,366.144 317.510,366.144 319.600 M368.800 318.526 C 368.800 318.842,368.688 319.707,368.551 320.450 C 368.314 321.738,368.332 321.764,368.939 321.000 C 369.658 320.095,369.801 318.571,369.200 318.200 C 368.980 318.064,368.800 318.211,368.800 318.526 M364.828 331.300 C 364.850 332.617,364.934 332.820,365.200 332.200 C 365.679 331.084,365.679 329.600,365.200 329.600 C 364.980 329.600,364.813 330.365,364.828 331.300 M397.905 336.283 C 398.402 336.379,399.122 336.375,399.505 336.275 C 399.887 336.175,399.480 336.096,398.600 336.101 C 397.720 336.105,397.407 336.187,397.905 336.283 M364.176 352.800 C 364.176 359.070,364.232 361.635,364.299 358.500 C 364.367 355.365,364.367 350.235,364.299 347.100 C 364.232 343.965,364.176 346.530,364.176 352.800 M365.861 360.927 C 365.674 363.087,365.617 364.951,365.735 365.068 C 366.130 365.463,366.447 362.623,366.323 359.800 L 366.200 357.000 365.861 360.927 M364.909 362.800 C 364.909 363.790,364.987 364.195,365.082 363.700 C 365.178 363.205,365.178 362.395,365.082 361.900 C 364.987 361.405,364.909 361.810,364.909 362.800 M368.101 362.600 C 368.105 363.480,368.187 363.793,368.283 363.295 C 368.379 362.798,368.375 362.078,368.275 361.695 C 368.175 361.313,368.096 361.720,368.101 362.600 M369.609 397.567 C 369.599 402.480,369.337 402.911,368.560 399.293 L 368.067 397.000 368.034 399.716 C 367.997 402.690,368.867 404.997,370.367 405.903 C 371.410 406.534,371.420 406.140,370.400 404.600 C 369.250 402.864,369.321 402.800,372.400 402.800 L 375.200 402.800 375.200 405.600 C 375.200 408.320,375.229 408.400,376.200 408.400 C 376.750 408.400,377.200 408.255,377.200 408.078 C 377.200 406.890,375.204 402.202,373.847 400.200 C 372.952 398.880,371.634 396.720,370.919 395.400 L 369.618 393.000 369.609 397.567 M380.531 417.000 C 380.533 418.540,380.605 419.121,380.692 418.291 C 380.779 417.461,380.777 416.201,380.689 415.491 C 380.600 414.781,380.529 415.460,380.531 417.000 M352.814 423.900 C 352.804 424.795,352.987 425.200,353.400 425.200 C 354.136 425.200,354.136 424.888,353.400 423.600 L 352.828 422.600 352.814 423.900 M8.509 427.600 C 8.509 428.590,8.587 428.995,8.682 428.500 C 8.778 428.005,8.778 427.195,8.682 426.700 C 8.587 426.205,8.509 426.610,8.509 427.600 M311.442 429.540 C 311.217 429.899,311.414 430.369,312.028 430.940 C 312.537 431.413,312.758 431.530,312.520 431.200 C 312.281 430.870,312.017 430.240,311.934 429.800 C 311.817 429.186,311.702 429.126,311.442 429.540 M314.500 430.676 C 314.885 430.776,315.515 430.776,315.900 430.676 C 316.285 430.575,315.970 430.493,315.200 430.493 C 314.430 430.493,314.115 430.575,314.500 430.676 M358.200 438.000 L 357.400 438.344 358.200 438.344 C 358.640 438.344,359.360 438.189,359.800 438.000 L 360.600 437.656 359.800 437.656 C 359.360 437.656,358.640 437.811,358.200 438.000 " stroke="none" fill="#202c3c" fill-rule="evenodd"></path><path id="path3" d="M106.800 1.376 C 106.800 2.133,106.980 2.864,107.200 3.000 C 107.442 3.149,107.600 2.604,107.600 1.624 C 107.600 0.731,107.420 0.000,107.200 0.000 C 106.980 0.000,106.800 0.619,106.800 1.376 M108.400 1.600 C 108.400 3.162,108.433 3.200,109.800 3.200 C 111.167 3.200,111.200 3.162,111.200 1.600 C 111.200 0.038,111.167 0.000,109.800 0.000 C 108.433 0.000,108.400 0.038,108.400 1.600 M119.600 1.710 C 119.600 2.723,119.758 3.650,119.950 3.769 C 120.272 3.968,120.079 0.410,119.747 0.033 C 119.666 -0.058,119.600 0.696,119.600 1.710 M122.400 1.522 C 122.400 2.725,122.671 3.293,123.700 4.242 C 126.409 6.742,126.602 6.771,125.454 4.507 C 124.875 3.363,124.400 1.881,124.400 1.213 C 124.400 0.186,124.247 0.000,123.400 0.000 C 122.509 0.000,122.400 0.165,122.400 1.522 M125.200 1.600 L 125.200 3.200 127.200 3.200 L 129.200 3.200 129.200 1.600 L 129.200 0.000 127.200 0.000 L 125.200 0.000 125.200 1.600 M141.600 4.400 L 141.600 8.800 143.800 8.800 C 146.444 8.800,146.525 8.518,144.770 5.408 C 144.093 4.209,143.573 2.816,143.614 2.314 C 143.774 0.357,143.617 0.000,142.600 0.000 L 141.600 0.000 141.600 4.400 M180.400 1.600 C 180.400 2.480,180.580 3.200,180.800 3.200 C 181.020 3.200,181.200 2.480,181.200 1.600 C 181.200 0.720,181.020 0.000,180.800 0.000 C 180.580 0.000,180.400 0.720,180.400 1.600 M130.417 7.100 C 130.403 8.539,130.523 8.800,131.200 8.800 C 132.176 8.800,132.176 8.583,131.200 6.800 L 130.434 5.400 130.417 7.100 M149.997 7.011 C 149.986 9.537,152.190 16.400,153.012 16.400 C 153.987 16.400,154.426 15.387,153.806 14.567 C 153.130 13.674,152.975 8.942,153.614 8.729 C 153.866 8.645,153.792 8.279,153.427 7.795 C 152.871 7.060,152.822 7.196,152.783 9.600 L 152.742 12.200 151.997 10.105 C 151.051 7.443,150.002 5.821,149.997 7.011 M386.705 8.683 C 387.202 8.779,387.922 8.775,388.305 8.675 C 388.687 8.575,388.280 8.496,387.400 8.501 C 386.520 8.505,386.207 8.587,386.705 8.683 M134.639 16.592 C 134.220 17.234,133.860 18.263,133.839 18.879 C 133.817 19.494,133.710 19.996,133.600 19.993 C 133.177 19.982,132.510 19.374,132.292 18.800 C 132.103 18.304,132.058 18.315,132.032 18.864 C 132.000 19.534,134.060 21.534,134.931 21.678 C 137.323 22.073,144.596 21.748,143.275 21.305 C 142.464 21.033,141.322 20.538,140.738 20.205 C 140.154 19.872,139.299 19.600,138.838 19.600 C 138.222 19.600,138.000 19.348,138.000 18.649 C 138.000 17.531,137.056 16.616,136.230 16.933 C 135.850 17.079,135.607 16.857,135.525 16.291 C 135.408 15.478,135.354 15.496,134.639 16.592 M102.800 18.533 C 102.800 19.226,103.015 19.600,103.414 19.600 C 103.923 19.600,103.948 19.446,103.560 18.700 C 102.871 17.376,102.800 17.361,102.800 18.533 M132.100 21.442 C 132.923 22.300,135.697 23.199,137.400 23.161 C 138.262 23.141,137.952 22.976,136.297 22.575 C 135.030 22.268,133.410 21.724,132.697 21.365 C 131.444 20.735,131.424 20.738,132.100 21.442 M131.200 22.631 C 131.200 22.901,133.278 23.656,133.476 23.457 C 133.567 23.367,133.092 23.101,132.420 22.867 C 131.749 22.633,131.200 22.527,131.200 22.631 M218.100 23.876 C 218.485 23.976,219.115 23.976,219.500 23.876 C 219.885 23.775,219.570 23.693,218.800 23.693 C 218.030 23.693,217.715 23.775,218.100 23.876 M130.128 24.699 C 130.451 25.023,131.253 25.204,132.026 25.130 C 133.324 25.004,133.307 24.987,131.466 24.570 C 129.839 24.201,129.648 24.219,130.128 24.699 M222.100 24.276 C 222.485 24.376,223.115 24.376,223.500 24.276 C 223.885 24.175,223.570 24.093,222.800 24.093 C 222.030 24.093,221.715 24.175,222.100 24.276 M157.565 24.689 C 158.334 24.835,158.415 24.954,157.965 25.271 C 157.550 25.563,157.666 25.608,158.400 25.440 C 158.950 25.314,160.015 25.208,160.767 25.205 C 162.899 25.197,162.067 24.933,159.200 24.709 C 157.770 24.597,157.034 24.588,157.565 24.689 M179.400 24.810 C 180.619 25.110,186.272 25.321,185.967 25.055 C 185.875 24.975,184.090 24.821,182.000 24.712 C 179.910 24.604,178.740 24.648,179.400 24.810 M331.300 25.087 C 331.905 25.178,332.895 25.178,333.500 25.087 C 334.105 24.995,333.610 24.920,332.400 24.920 C 331.190 24.920,330.695 24.995,331.300 25.087 M168.905 25.887 C 169.514 25.979,170.414 25.977,170.905 25.882 C 171.397 25.787,170.900 25.711,169.800 25.714 C 168.700 25.717,168.297 25.795,168.905 25.887 M180.713 26.695 C 181.876 26.776,183.676 26.776,184.713 26.693 C 185.751 26.611,184.800 26.545,182.600 26.546 C 180.400 26.547,179.551 26.614,180.713 26.695 M169.300 27.076 C 169.685 27.176,170.315 27.176,170.700 27.076 C 171.085 26.975,170.770 26.893,170.000 26.893 C 169.230 26.893,168.915 26.975,169.300 27.076 M198.912 27.495 C 199.964 27.577,201.584 27.576,202.512 27.492 C 203.440 27.408,202.580 27.341,200.600 27.342 C 198.620 27.343,197.860 27.412,198.912 27.495 M220.707 27.890 C 221.426 27.979,222.506 27.977,223.107 27.886 C 223.708 27.795,223.120 27.722,221.800 27.724 C 220.480 27.726,219.988 27.801,220.707 27.890 M329.907 28.690 C 330.626 28.779,331.706 28.777,332.307 28.686 C 332.908 28.595,332.320 28.522,331.000 28.524 C 329.680 28.526,329.188 28.601,329.907 28.690 M305.107 29.090 C 305.826 29.179,306.906 29.177,307.507 29.086 C 308.108 28.995,307.520 28.922,306.200 28.924 C 304.880 28.926,304.388 29.001,305.107 29.090 M86.705 41.883 C 87.202 41.979,87.922 41.975,88.305 41.875 C 88.687 41.775,88.280 41.696,87.400 41.701 C 86.520 41.705,86.207 41.787,86.705 41.883 M358.493 42.800 C 358.493 43.570,358.575 43.885,358.676 43.500 C 358.776 43.115,358.776 42.485,358.676 42.100 C 358.575 41.715,358.493 42.030,358.493 42.800 M8.501 44.200 C 8.505 45.080,8.587 45.393,8.683 44.895 C 8.779 44.398,8.775 43.678,8.675 43.295 C 8.575 42.913,8.496 43.320,8.501 44.200 M114.500 53.076 C 114.885 53.176,115.515 53.176,115.900 53.076 C 116.285 52.975,115.970 52.893,115.200 52.893 C 114.430 52.893,114.115 52.975,114.500 53.076 M2.998 235.800 C 2.998 333.700,3.044 373.690,3.100 324.667 C 3.156 275.644,3.156 195.544,3.100 146.667 C 3.044 97.790,2.998 137.900,2.998 235.800 M125.900 58.682 C 126.395 58.778,127.205 58.778,127.700 58.682 C 128.195 58.587,127.790 58.509,126.800 58.509 C 125.810 58.509,125.405 58.587,125.900 58.682 M208.900 97.476 C 209.285 97.576,209.915 97.576,210.300 97.476 C 210.685 97.375,210.370 97.293,209.600 97.293 C 208.830 97.293,208.515 97.375,208.900 97.476 M221.305 103.087 C 221.914 103.179,222.814 103.177,223.305 103.082 C 223.797 102.987,223.300 102.911,222.200 102.914 C 221.100 102.917,220.697 102.995,221.305 103.087 M234.505 108.687 C 235.114 108.779,236.014 108.777,236.505 108.682 C 236.997 108.587,236.500 108.511,235.400 108.514 C 234.300 108.517,233.897 108.595,234.505 108.687 M365.309 114.000 C 365.309 114.990,365.387 115.395,365.482 114.900 C 365.578 114.405,365.578 113.595,365.482 113.100 C 365.387 112.605,365.309 113.010,365.309 114.000 M365.320 151.200 C 365.320 152.410,365.395 152.905,365.487 152.300 C 365.578 151.695,365.578 150.705,365.487 150.100 C 365.395 149.495,365.320 149.990,365.320 151.200 M368.101 151.800 C 368.105 152.680,368.187 152.993,368.283 152.495 C 368.379 151.998,368.375 151.278,368.275 150.895 C 368.175 150.513,368.096 150.920,368.101 151.800 M375.200 178.146 L 375.200 180.800 376.808 180.800 L 378.416 180.800 377.553 179.100 C 377.078 178.165,376.355 176.971,375.945 176.446 L 375.200 175.492 375.200 178.146 M380.400 185.376 C 380.400 185.989,380.626 186.400,380.963 186.400 C 381.330 186.400,381.452 186.120,381.314 185.594 C 380.993 184.364,380.400 184.223,380.400 185.376 M365.693 206.000 C 365.693 206.770,365.775 207.085,365.876 206.700 C 365.976 206.315,365.976 205.685,365.876 205.300 C 365.775 204.915,365.693 205.230,365.693 206.000 M364.167 228.800 C 364.167 233.090,364.226 234.845,364.298 232.700 C 364.370 230.555,364.370 227.045,364.298 224.900 C 364.226 222.755,364.167 224.510,364.167 228.800 M362.959 230.400 C 362.959 233.590,363.021 234.895,363.097 233.300 C 363.173 231.705,363.173 229.095,363.097 227.500 C 363.021 225.905,362.959 227.210,362.959 230.400 M369.600 258.078 C 369.600 259.733,369.508 261.968,369.396 263.044 C 369.284 264.120,369.299 264.775,369.430 264.500 C 369.579 264.185,370.523 264.000,371.982 264.000 L 374.297 264.000 372.129 259.714 C 370.937 257.356,369.880 255.346,369.780 255.247 C 369.681 255.148,369.600 256.422,369.600 258.078 M386.028 261.100 L 386.000 264.000 387.172 264.000 C 388.503 264.000,388.468 263.533,386.870 260.000 L 386.057 258.200 386.028 261.100 M367.735 262.087 C 367.785 264.050,368.009 265.361,368.349 265.687 C 368.794 266.113,368.833 265.963,368.584 264.800 C 368.418 264.030,368.142 262.410,367.969 261.200 C 367.670 259.096,367.660 259.135,367.735 262.087 M375.200 267.933 C 375.200 269.458,375.288 269.600,376.233 269.600 L 377.265 269.600 376.363 268.100 C 375.867 267.275,375.402 266.525,375.331 266.433 C 375.259 266.342,375.200 267.017,375.200 267.933 M366.144 319.600 C 366.144 321.690,366.212 322.545,366.294 321.500 C 366.376 320.455,366.376 318.745,366.294 317.700 C 366.212 316.655,366.144 317.510,366.144 319.600 M368.800 318.526 C 368.800 318.842,368.688 319.707,368.551 320.450 C 368.314 321.738,368.332 321.764,368.939 321.000 C 369.658 320.095,369.801 318.571,369.200 318.200 C 368.980 318.064,368.800 318.211,368.800 318.526 M364.828 331.300 C 364.850 332.617,364.934 332.820,365.200 332.200 C 365.679 331.084,365.679 329.600,365.200 329.600 C 364.980 329.600,364.813 330.365,364.828 331.300 M397.905 336.283 C 398.402 336.379,399.122 336.375,399.505 336.275 C 399.887 336.175,399.480 336.096,398.600 336.101 C 397.720 336.105,397.407 336.187,397.905 336.283 M364.176 352.800 C 364.176 359.070,364.232 361.635,364.299 358.500 C 364.367 355.365,364.367 350.235,364.299 347.100 C 364.232 343.965,364.176 346.530,364.176 352.800 M365.861 360.927 C 365.674 363.087,365.617 364.951,365.735 365.068 C 366.130 365.463,366.447 362.623,366.323 359.800 L 366.200 357.000 365.861 360.927 M364.909 362.800 C 364.909 363.790,364.987 364.195,365.082 363.700 C 365.178 363.205,365.178 362.395,365.082 361.900 C 364.987 361.405,364.909 361.810,364.909 362.800 M368.101 362.600 C 368.105 363.480,368.187 363.793,368.283 363.295 C 368.379 362.798,368.375 362.078,368.275 361.695 C 368.175 361.313,368.096 361.720,368.101 362.600 M369.609 397.567 C 369.599 402.480,369.337 402.911,368.560 399.293 L 368.067 397.000 368.034 399.716 C 367.997 402.690,368.867 404.997,370.367 405.903 C 371.410 406.534,371.420 406.140,370.400 404.600 C 369.250 402.864,369.321 402.800,372.400 402.800 L 375.200 402.800 375.200 405.600 C 375.200 408.320,375.229 408.400,376.200 408.400 C 376.750 408.400,377.200 408.255,377.200 408.078 C 377.200 406.890,375.204 402.202,373.847 400.200 C 372.952 398.880,371.634 396.720,370.919 395.400 L 369.618 393.000 369.609 397.567 M380.531 417.000 C 380.533 418.540,380.605 419.121,380.692 418.291 C 380.779 417.461,380.777 416.201,380.689 415.491 C 380.600 414.781,380.529 415.460,380.531 417.000 M352.814 423.900 C 352.804 424.795,352.987 425.200,353.400 425.200 C 354.136 425.200,354.136 424.888,353.400 423.600 L 352.828 422.600 352.814 423.900 M8.509 427.600 C 8.509 428.590,8.587 428.995,8.682 428.500 C 8.778 428.005,8.778 427.195,8.682 426.700 C 8.587 426.205,8.509 426.610,8.509 427.600 M311.442 429.540 C 311.217 429.899,311.414 430.369,312.028 430.940 C 312.537 431.413,312.758 431.530,312.520 431.200 C 312.281 430.870,312.017 430.240,311.934 429.800 C 311.817 429.186,311.702 429.126,311.442 429.540 M314.500 430.676 C 314.885 430.776,315.515 430.776,315.900 430.676 C 316.285 430.575,315.970 430.493,315.200 430.493 C 314.430 430.493,314.115 430.575,314.500 430.676 M358.200 438.000 L 357.400 438.344 358.200 438.344 C 358.640 438.344,359.360 438.189,359.800 438.000 L 360.600 437.656 359.800 437.656 C 359.360 437.656,358.640 437.811,358.200 438.000 " stroke="none" fill="#202c3c" fill-rule="evenodd"></path><path id="path4" d="M106.800 1.376 C 106.800 2.133,106.980 2.864,107.200 3.000 C 107.442 3.149,107.600 2.604,107.600 1.624 C 107.600 0.731,107.420 0.000,107.200 0.000 C 106.980 0.000,106.800 0.619,106.800 1.376 M108.400 1.600 C 108.400 3.162,108.433 3.200,109.800 3.200 C 111.167 3.200,111.200 3.162,111.200 1.600 C 111.200 0.038,111.167 0.000,109.800 0.000 C 108.433 0.000,108.400 0.038,108.400 1.600 M119.600 1.710 C 119.600 2.723,119.758 3.650,119.950 3.769 C 120.272 3.968,120.079 0.410,119.747 0.033 C 119.666 -0.058,119.600 0.696,119.600 1.710 M122.400 1.522 C 122.400 2.725,122.671 3.293,123.700 4.242 C 126.409 6.742,126.602 6.771,125.454 4.507 C 124.875 3.363,124.400 1.881,124.400 1.213 C 124.400 0.186,124.247 0.000,123.400 0.000 C 122.509 0.000,122.400 0.165,122.400 1.522 M125.200 1.600 L 125.200 3.200 127.200 3.200 L 129.200 3.200 129.200 1.600 L 129.200 0.000 127.200 0.000 L 125.200 0.000 125.200 1.600 M141.600 4.400 L 141.600 8.800 143.800 8.800 C 146.444 8.800,146.525 8.518,144.770 5.408 C 144.093 4.209,143.573 2.816,143.614 2.314 C 143.774 0.357,143.617 0.000,142.600 0.000 L 141.600 0.000 141.600 4.400 M180.400 1.600 C 180.400 2.480,180.580 3.200,180.800 3.200 C 181.020 3.200,181.200 2.480,181.200 1.600 C 181.200 0.720,181.020 0.000,180.800 0.000 C 180.580 0.000,180.400 0.720,180.400 1.600 M130.417 7.100 C 130.403 8.539,130.523 8.800,131.200 8.800 C 132.176 8.800,132.176 8.583,131.200 6.800 L 130.434 5.400 130.417 7.100 M149.997 7.011 C 149.986 9.537,152.190 16.400,153.012 16.400 C 153.987 16.400,154.426 15.387,153.806 14.567 C 153.130 13.674,152.975 8.942,153.614 8.729 C 153.866 8.645,153.792 8.279,153.427 7.795 C 152.871 7.060,152.822 7.196,152.783 9.600 L 152.742 12.200 151.997 10.105 C 151.051 7.443,150.002 5.821,149.997 7.011 M386.705 8.683 C 387.202 8.779,387.922 8.775,388.305 8.675 C 388.687 8.575,388.280 8.496,387.400 8.501 C 386.520 8.505,386.207 8.587,386.705 8.683 M134.639 16.592 C 134.220 17.234,133.860 18.263,133.839 18.879 C 133.817 19.494,133.710 19.996,133.600 19.993 C 133.177 19.982,132.510 19.374,132.292 18.800 C 132.103 18.304,132.058 18.315,132.032 18.864 C 132.000 19.534,134.060 21.534,134.931 21.678 C 137.323 22.073,144.596 21.748,143.275 21.305 C 142.464 21.033,141.322 20.538,140.738 20.205 C 140.154 19.872,139.299 19.600,138.838 19.600 C 138.222 19.600,138.000 19.348,138.000 18.649 C 138.000 17.531,137.056 16.616,136.230 16.933 C 135.850 17.079,135.607 16.857,135.525 16.291 C 135.408 15.478,135.354 15.496,134.639 16.592 M102.800 18.533 C 102.800 19.226,103.015 19.600,103.414 19.600 C 103.923 19.600,103.948 19.446,103.560 18.700 C 102.871 17.376,102.800 17.361,102.800 18.533 M132.100 21.442 C 132.923 22.300,135.697 23.199,137.400 23.161 C 138.262 23.141,137.952 22.976,136.297 22.575 C 135.030 22.268,133.410 21.724,132.697 21.365 C 131.444 20.735,131.424 20.738,132.100 21.442 M131.200 22.631 C 131.200 22.901,133.278 23.656,133.476 23.457 C 133.567 23.367,133.092 23.101,132.420 22.867 C 131.749 22.633,131.200 22.527,131.200 22.631 M218.100 23.876 C 218.485 23.976,219.115 23.976,219.500 23.876 C 219.885 23.775,219.570 23.693,218.800 23.693 C 218.030 23.693,217.715 23.775,218.100 23.876 M130.128 24.699 C 130.451 25.023,131.253 25.204,132.026 25.130 C 133.324 25.004,133.307 24.987,131.466 24.570 C 129.839 24.201,129.648 24.219,130.128 24.699 M222.100 24.276 C 222.485 24.376,223.115 24.376,223.500 24.276 C 223.885 24.175,223.570 24.093,222.800 24.093 C 222.030 24.093,221.715 24.175,222.100 24.276 M157.565 24.689 C 158.334 24.835,158.415 24.954,157.965 25.271 C 157.550 25.563,157.666 25.608,158.400 25.440 C 158.950 25.314,160.015 25.208,160.767 25.205 C 162.899 25.197,162.067 24.933,159.200 24.709 C 157.770 24.597,157.034 24.588,157.565 24.689 M179.400 24.810 C 180.619 25.110,186.272 25.321,185.967 25.055 C 185.875 24.975,184.090 24.821,182.000 24.712 C 179.910 24.604,178.740 24.648,179.400 24.810 M331.300 25.087 C 331.905 25.178,332.895 25.178,333.500 25.087 C 334.105 24.995,333.610 24.920,332.400 24.920 C 331.190 24.920,330.695 24.995,331.300 25.087 M168.905 25.887 C 169.514 25.979,170.414 25.977,170.905 25.882 C 171.397 25.787,170.900 25.711,169.800 25.714 C 168.700 25.717,168.297 25.795,168.905 25.887 M180.713 26.695 C 181.876 26.776,183.676 26.776,184.713 26.693 C 185.751 26.611,184.800 26.545,182.600 26.546 C 180.400 26.547,179.551 26.614,180.713 26.695 M169.300 27.076 C 169.685 27.176,170.315 27.176,170.700 27.076 C 171.085 26.975,170.770 26.893,170.000 26.893 C 169.230 26.893,168.915 26.975,169.300 27.076 M198.912 27.495 C 199.964 27.577,201.584 27.576,202.512 27.492 C 203.440 27.408,202.580 27.341,200.600 27.342 C 198.620 27.343,197.860 27.412,198.912 27.495 M220.707 27.890 C 221.426 27.979,222.506 27.977,223.107 27.886 C 223.708 27.795,223.120 27.722,221.800 27.724 C 220.480 27.726,219.988 27.801,220.707 27.890 M329.907 28.690 C 330.626 28.779,331.706 28.777,332.307 28.686 C 332.908 28.595,332.320 28.522,331.000 28.524 C 329.680 28.526,329.188 28.601,329.907 28.690 M305.107 29.090 C 305.826 29.179,306.906 29.177,307.507 29.086 C 308.108 28.995,307.520 28.922,306.200 28.924 C 304.880 28.926,304.388 29.001,305.107 29.090 M86.705 41.883 C 87.202 41.979,87.922 41.975,88.305 41.875 C 88.687 41.775,88.280 41.696,87.400 41.701 C 86.520 41.705,86.207 41.787,86.705 41.883 M358.493 42.800 C 358.493 43.570,358.575 43.885,358.676 43.500 C 358.776 43.115,358.776 42.485,358.676 42.100 C 358.575 41.715,358.493 42.030,358.493 42.800 M8.501 44.200 C 8.505 45.080,8.587 45.393,8.683 44.895 C 8.779 44.398,8.775 43.678,8.675 43.295 C 8.575 42.913,8.496 43.320,8.501 44.200 M114.500 53.076 C 114.885 53.176,115.515 53.176,115.900 53.076 C 116.285 52.975,115.970 52.893,115.200 52.893 C 114.430 52.893,114.115 52.975,114.500 53.076 M2.998 235.800 C 2.998 333.700,3.044 373.690,3.100 324.667 C 3.156 275.644,3.156 195.544,3.100 146.667 C 3.044 97.790,2.998 137.900,2.998 235.800 M125.900 58.682 C 126.395 58.778,127.205 58.778,127.700 58.682 C 128.195 58.587,127.790 58.509,126.800 58.509 C 125.810 58.509,125.405 58.587,125.900 58.682 M208.900 97.476 C 209.285 97.576,209.915 97.576,210.300 97.476 C 210.685 97.375,210.370 97.293,209.600 97.293 C 208.830 97.293,208.515 97.375,208.900 97.476 M221.305 103.087 C 221.914 103.179,222.814 103.177,223.305 103.082 C 223.797 102.987,223.300 102.911,222.200 102.914 C 221.100 102.917,220.697 102.995,221.305 103.087 M234.505 108.687 C 235.114 108.779,236.014 108.777,236.505 108.682 C 236.997 108.587,236.500 108.511,235.400 108.514 C 234.300 108.517,233.897 108.595,234.505 108.687 M365.309 114.000 C 365.309 114.990,365.387 115.395,365.482 114.900 C 365.578 114.405,365.578 113.595,365.482 113.100 C 365.387 112.605,365.309 113.010,365.309 114.000 M365.320 151.200 C 365.320 152.410,365.395 152.905,365.487 152.300 C 365.578 151.695,365.578 150.705,365.487 150.100 C 365.395 149.495,365.320 149.990,365.320 151.200 M368.101 151.800 C 368.105 152.680,368.187 152.993,368.283 152.495 C 368.379 151.998,368.375 151.278,368.275 150.895 C 368.175 150.513,368.096 150.920,368.101 151.800 M375.200 178.146 L 375.200 180.800 376.808 180.800 L 378.416 180.800 377.553 179.100 C 377.078 178.165,376.355 176.971,375.945 176.446 L 375.200 175.492 375.200 178.146 M380.400 185.376 C 380.400 185.989,380.626 186.400,380.963 186.400 C 381.330 186.400,381.452 186.120,381.314 185.594 C 380.993 184.364,380.400 184.223,380.400 185.376 M365.693 206.000 C 365.693 206.770,365.775 207.085,365.876 206.700 C 365.976 206.315,365.976 205.685,365.876 205.300 C 365.775 204.915,365.693 205.230,365.693 206.000 M364.167 228.800 C 364.167 233.090,364.226 234.845,364.298 232.700 C 364.370 230.555,364.370 227.045,364.298 224.900 C 364.226 222.755,364.167 224.510,364.167 228.800 M362.959 230.400 C 362.959 233.590,363.021 234.895,363.097 233.300 C 363.173 231.705,363.173 229.095,363.097 227.500 C 363.021 225.905,362.959 227.210,362.959 230.400 M369.600 258.078 C 369.600 259.733,369.508 261.968,369.396 263.044 C 369.284 264.120,369.299 264.775,369.430 264.500 C 369.579 264.185,370.523 264.000,371.982 264.000 L 374.297 264.000 372.129 259.714 C 370.937 257.356,369.880 255.346,369.780 255.247 C 369.681 255.148,369.600 256.422,369.600 258.078 M386.028 261.100 L 386.000 264.000 387.172 264.000 C 388.503 264.000,388.468 263.533,386.870 260.000 L 386.057 258.200 386.028 261.100 M367.735 262.087 C 367.785 264.050,368.009 265.361,368.349 265.687 C 368.794 266.113,368.833 265.963,368.584 264.800 C 368.418 264.030,368.142 262.410,367.969 261.200 C 367.670 259.096,367.660 259.135,367.735 262.087 M375.200 267.933 C 375.200 269.458,375.288 269.600,376.233 269.600 L 377.265 269.600 376.363 268.100 C 375.867 267.275,375.402 266.525,375.331 266.433 C 375.259 266.342,375.200 267.017,375.200 267.933 M366.144 319.600 C 366.144 321.690,366.212 322.545,366.294 321.500 C 366.376 320.455,366.376 318.745,366.294 317.700 C 366.212 316.655,366.144 317.510,366.144 319.600 M368.800 318.526 C 368.800 318.842,368.688 319.707,368.551 320.450 C 368.314 321.738,368.332 321.764,368.939 321.000 C 369.658 320.095,369.801 318.571,369.200 318.200 C 368.980 318.064,368.800 318.211,368.800 318.526 M364.828 331.300 C 364.850 332.617,364.934 332.820,365.200 332.200 C 365.679 331.084,365.679 329.600,365.200 329.600 C 364.980 329.600,364.813 330.365,364.828 331.300 M397.905 336.283 C 398.402 336.379,399.122 336.375,399.505 336.275 C 399.887 336.175,399.480 336.096,398.600 336.101 C 397.720 336.105,397.407 336.187,397.905 336.283 M364.176 352.800 C 364.176 359.070,364.232 361.635,364.299 358.500 C 364.367 355.365,364.367 350.235,364.299 347.100 C 364.232 343.965,364.176 346.530,364.176 352.800 M365.861 360.927 C 365.674 363.087,365.617 364.951,365.735 365.068 C 366.130 365.463,366.447 362.623,366.323 359.800 L 366.200 357.000 365.861 360.927 M364.909 362.800 C 364.909 363.790,364.987 364.195,365.082 363.700 C 365.178 363.205,365.178 362.395,365.082 361.900 C 364.987 361.405,364.909 361.810,364.909 362.800 M368.101 362.600 C 368.105 363.480,368.187 363.793,368.283 363.295 C 368.379 362.798,368.375 362.078,368.275 361.695 C 368.175 361.313,368.096 361.720,368.101 362.600 M369.609 397.567 C 369.599 402.480,369.337 402.911,368.560 399.293 L 368.067 397.000 368.034 399.716 C 367.997 402.690,368.867 404.997,370.367 405.903 C 371.410 406.534,371.420 406.140,370.400 404.600 C 369.250 402.864,369.321 402.800,372.400 402.800 L 375.200 402.800 375.200 405.600 C 375.200 408.320,375.229 408.400,376.200 408.400 C 376.750 408.400,377.200 408.255,377.200 408.078 C 377.200 406.890,375.204 402.202,373.847 400.200 C 372.952 398.880,371.634 396.720,370.919 395.400 L 369.618 393.000 369.609 397.567 M380.531 417.000 C 380.533 418.540,380.605 419.121,380.692 418.291 C 380.779 417.461,380.777 416.201,380.689 415.491 C 380.600 414.781,380.529 415.460,380.531 417.000 M352.814 423.900 C 352.804 424.795,352.987 425.200,353.400 425.200 C 354.136 425.200,354.136 424.888,353.400 423.600 L 352.828 422.600 352.814 423.900 M8.509 427.600 C 8.509 428.590,8.587 428.995,8.682 428.500 C 8.778 428.005,8.778 427.195,8.682 426.700 C 8.587 426.205,8.509 426.610,8.509 427.600 M311.442 429.540 C 311.217 429.899,311.414 430.369,312.028 430.940 C 312.537 431.413,312.758 431.530,312.520 431.200 C 312.281 430.870,312.017 430.240,311.934 429.800 C 311.817 429.186,311.702 429.126,311.442 429.540 M314.500 430.676 C 314.885 430.776,315.515 430.776,315.900 430.676 C 316.285 430.575,315.970 430.493,315.200 430.493 C 314.430 430.493,314.115 430.575,314.500 430.676 M358.200 438.000 L 357.400 438.344 358.200 438.344 C 358.640 438.344,359.360 438.189,359.800 438.000 L 360.600 437.656 359.800 437.656 C 359.360 437.656,358.640 437.811,358.200 438.000 " stroke="none" fill="#202c3c" fill-rule="evenodd"></path></g></svg>