<svg width="17" height="16" viewBox="0 0 17 16" fill="none" xmlns="http://www.w3.org/2000/svg">
<path d="M8.25 11.575C8.11667 11.575 7.99167 11.554 7.875 11.512C7.75833 11.4707 7.65 11.4 7.55 11.3L3.95 7.7C3.76667 7.51667 3.675 7.28333 3.675 7C3.675 6.71667 3.76667 6.48333 3.95 6.3C4.13333 6.11667 4.37067 6.02067 4.662 6.012C4.954 6.004 5.19167 6.09167 5.375 6.275L7.25 8.15V1C7.25 0.716667 7.346 0.479 7.538 0.287C7.72933 0.0956668 7.96667 0 8.25 0C8.53333 0 8.771 0.0956668 8.963 0.287C9.15433 0.479 9.25 0.716667 9.25 1V8.15L11.125 6.275C11.3083 6.09167 11.546 6.004 11.838 6.012C12.1293 6.02067 12.3667 6.11667 12.55 6.3C12.7333 6.48333 12.825 6.71667 12.825 7C12.825 7.28333 12.7333 7.51667 12.55 7.7L8.95 11.3C8.85 11.4 8.74167 11.4707 8.625 11.512C8.50833 11.554 8.38333 11.575 8.25 11.575ZM2.25 16C1.7 16 1.22933 15.8043 0.838 15.413C0.446 15.021 0.25 14.55 0.25 14V12C0.25 11.7167 0.345667 11.479 0.537 11.287C0.729 11.0957 0.966667 11 1.25 11C1.53333 11 1.771 11.0957 1.963 11.287C2.15433 11.479 2.25 11.7167 2.25 12V14H14.25V12C14.25 11.7167 14.346 11.479 14.538 11.287C14.7293 11.0957 14.9667 11 15.25 11C15.5333 11 15.7707 11.0957 15.962 11.287C16.154 11.479 16.25 11.7167 16.25 12V14C16.25 14.55 16.0543 15.021 15.663 15.413C15.271 15.8043 14.8 16 14.25 16H2.25Z" fill="#761AC7"/>
</svg>
