<svg width="19" height="16" viewBox="0 0 19 16" fill="none" xmlns="http://www.w3.org/2000/svg">
<path d="M0.75 14.5V1.49999C0.75 1.13333 0.9 0.853995 1.2 0.661995C1.5 0.470661 1.81667 0.441661 2.15 0.574994L17.55 7.07499C17.9667 7.25833 18.175 7.56666 18.175 7.99999C18.175 8.43333 17.9667 8.74166 17.55 8.92499L2.15 15.425C1.81667 15.5583 1.5 15.529 1.2 15.337C0.9 15.1457 0.75 14.8667 0.75 14.5ZM2.75 13L14.6 7.99999L2.75 2.99999V6.49999L8.75 7.99999L2.75 9.49999V13ZM2.75 7.99999V2.99999V6.49999V9.49999V13V7.99999Z" fill="white"/>
</svg>
